<?xml version="1.0" encoding="utf-8" ?>
<svg baseProfile="full" height="300mm" version="1.1" viewBox="0,0,200,300" width="200mm" xmlns="http://www.w3.org/2000/svg" xmlns:ev="http://www.w3.org/2001/xml-events" xmlns:xlink="http://www.w3.org/1999/xlink"><defs /><rect fill="#222222" height="300" width="200" x="0" y="0" /><text fill="#FFFFFF" style="font-size:12px; font-family:Arial; font-weight:bold;" x="10" y="20">Over 20km Riding </text><text fill="#FFFFFF" style="font-size:4px; font-family:Arial" x="10" y="280">ATHLETE</text><text fill="#FFFFFF" style="font-size:9px; font-family:Arial" x="10" y="290">Joe</text><text fill="#FFFFFF" style="font-size:4px; font-family:Arial" x="120" y="280">STATISTICS</text><text fill="#FFFFFF" style="font-size:3px; font-family:Arial" x="120" y="285">Number: 10</text><text fill="#FFFFFF" style="font-size:3px; font-family:Arial" x="120" y="290">Weekly: 1.0</text><text fill="#FFFFFF" style="font-size:3px; font-family:Arial" x="141" y="285">Total: 269.0 km</text><text fill="#FFFFFF" style="font-size:3px; font-family:Arial" x="141" y="290">Avg: 26.9 km</text><text fill="#FFFFFF" style="font-size:3px; font-family:Arial" x="167" y="285">Min: 20.7 km</text><text fill="#FFFFFF" style="font-size:3px; font-family:Arial" x="167" y="290">Max: 31.9 km</text><polyline fill="none" points="16.8701468531508,85.39265764106676 14.155590957729146,75.98453033582337 14.584205046470743,75.4999201823448 25.585299991245847,75.02712783583411 29.18769935623277,75.08622698463296 38.03551875986159,74.35339540932182 40.99499699176522,74.31793569940783 42.556376886495855,74.90892944780353 46.08734057005495,78.1593411934955 47.82220711983973,79.3767446725542 50.72045476757921,80.55867756394582 52.118553104635794,80.78324345075816 61.87462617259007,80.80688193986134 62.00729243812384,80.98417045437964 61.93585675669601,80.34593053300341 62.64000847394345,80.20409896207275 62.74205944745336,79.74314515795413 65.28312868787907,61.681768177055346 65.73215297143906,56.598543144566065 65.66071728995303,51.349583670904394 65.6913325819769,50.27375404492341 65.86481923697283,49.82450355092442 65.71174277667888,49.59987765043479 65.82399884756887,48.973287309556326 65.6913325819769,45.08362237045367 65.87502433429472,44.79987270277343 65.71174277667888,44.09049549159681 65.63010199787095,33.0 65.24230829853332,33.0 65.27292359055718,38.14337893706397 65.2525133958552,38.48626274202252 65.0484114488354,38.66361603586847 35.545475006103516,38.68726312119543 35.52506481145974,37.91873037625919 38.13756973337149,37.77684685013082 37.84162191016367,37.89508313398255 32.06553680932848,38.08426093697926 31.953280738496687,49.58805522254261 31.565487039100844,50.344688174103794 31.48384626029292,51.04220479747164 31.208308631787077,56.19660420731816 30.80010473774746,60.28685886259336 29.95308165764436,60.499642725029844 25.85063252231339,60.73606878044666 25.656735672673676,60.92520927733858 25.524069407139905,62.22554183446482 25.238326681312174,62.178257269915775 25.11586551304208,62.36739541228599 25.11586551304208,65.85457458414749 24.96278905280633,66.1973763621354 25.49345411505783,67.87590835739684 26.013914079987444,73.1950392739891 26.00370898260735,74.74345150205772 14.747486604086589,75.01530800246837 14.461743878258858,75.07440715729172 14.124975665705279,75.8663329242845 17.30896603927249,87.0" stroke="#ffff00" stroke-linecap="round" stroke-linejoin="round" stroke-width="0.5"><title>2024-06-09 20.7km</title></polyline><polyline fill="none" points="126.7616269903956,76.31530427892721 125.54422197700478,76.10825587338331 124.16506384991226,76.16741260592244 123.67129118717276,74.60960657824035 121.28756109101232,74.68848343595891 120.90446161129512,72.5686455131945 120.0786693994014,69.43317212307738 120.0701560775924,67.86539729644574 119.8062431026774,67.76679425632028 118.96342424722388,67.81609578894131 118.39303168849437,68.03302223381615 118.46965158445528,67.90483848431177 118.14614535713918,67.51042588138807 118.12060539177037,67.0568493988394 119.7807031373377,66.99768709204363 120.1893425823946,60.44030702096643 111.73561406278168,60.35155747284443 112.14425350780948,53.05409356653399 109.31783067950164,53.03436994442018 107.81948604760692,52.27500743314886 107.32571338483831,52.117217071630876 107.57259971625172,52.215836077761196 107.46192653322942,52.28486932220403 108.27920542334323,52.55113994585554 107.45341321144952,52.23555986694555 108.27920542334323,52.69906775308482 105.9720952231146,51.70301614678465 88.79221188713564,43.84272395171138 89.36260444583604,44.05970421333768 88.97099164433894,43.84272395171138 89.70313731671195,43.8131356964368 89.99259025696665,43.03397504676104 89.29449787168414,44.75995536993287 88.15371275422513,44.30627210093371 87.73655998738832,45.5588272519235 86.96184770617401,47.18613843080675 83.10531294340035,47.17627602137509 78.99337852752069,52.048183707447606 75.49440327924094,52.048183707447606 75.46886331390124,54.71086345052754 73.0,54.474183777492726 73.40863944508601,54.5234920905059 73.53633927163901,54.760171642759815 75.36670345262974,54.74044836888788 75.68169635819504,55.0757434774423 76.21803562983405,55.0757434774423 75.82642282830784,55.174359464479494 76.11587576856255,55.0757434774423 83.56503231913666,55.10532828413125 84.02475169481477,55.33214483434858 85.33580324766808,52.40321191217663 85.54012297024019,52.28486932220403 86.3914551474445,52.58072552540398 87.03846760207671,51.03240136132081 87.09806085453602,50.519575149795855 87.58332019549562,49.622122730565025 87.70250670032692,49.543225415967754 88.03452624942292,50.04619469271711 87.75358663094812,50.164540024365124 87.40454043829232,50.07578103921696 89.26895790634444,44.87830717665929 88.77518524354673,44.365448300326534 89.15828472335124,44.43448715379054 88.67302538233344,44.20764502140082 89.25193126284285,44.404899079752795 106.9255872615613,52.48210689166444 108.10042566611082,53.073817184565996 107.1980135582562,52.7286532873477 108.05785905724042,53.18229701193195 107.25760681068641,52.758238812573836 107.49597982029081,52.215836077761196 109.25823742712964,52.994922688187216 109.06243102630833,53.04423175594275 108.81554469495313,53.44856516281288 108.71338483371073,55.9238376771973 112.02506700300728,56.012591291182616 111.72710074100178,60.14447487689904 111.81223395874258,60.3811406645691 120.1467759735533,60.46002913174016 119.7977297808684,66.96810592507245 118.06952546117827,67.00754747903557 118.02695885230787,67.30335862073844 118.58032476744847,67.93441936468298 120.0361027904728,67.83581639495242 120.0020495034405,68.76268034001987 120.2404225130449,69.41345184291276 121.73876714491053,68.95988428830606 124.20763045881176,67.78651487240131 126.7446003468649,76.44347687926347 127.0,76.96602495323168" stroke="#ffdf00" stroke-linecap="round" stroke-linejoin="round" stroke-width="0.5"><title>2024-01-14 22.1km</title></polyline><polyline fill="none" points="160.80962807076867,87.0 160.88753042806638,86.7551185558732 159.54093253720202,82.25041958202928 156.61959413764998,82.34709031321472 156.40814488206524,81.66394730965112 156.363629249332,80.87123437904302 155.6958947579842,80.89056895907561 155.15057825672557,81.0388005428249 153.1529392368102,81.08391443407163 152.07899959661881,81.19992143510535 144.1719103284122,81.27725931748137 143.9326388023619,81.18703177883799 143.86030089913402,81.03235569857134 147.41598706549848,71.34501170675503 147.7164675865788,70.18475113523527 149.85321795882192,64.27998374103481 155.98524637089577,47.74240669973733 157.0313637406216,46.665540883557696 157.22611963393865,46.23349973112272 157.94949866624665,46.098083238535764 159.78576851738035,45.16305666686458 160.2253603908175,44.81483633315656 160.71503235114506,44.872873188920494 161.23252658193815,44.640725445511634 162.32315958442632,44.36988533183103 172.89005790976807,42.32564982071199 172.97908917526365,33.79331433678817 172.9902180834324,33.625622707280854 173.1905384308484,33.57402519310199 172.7119953787187,33.6449717642281 172.70086647054995,33.361185000765545 172.70086647054995,33.554676114403264 172.53393284772756,33.85781099862288 172.6730442000553,33.6449717642281 176.1396991008951,33.0 173.47989004375995,33.509528240985674 173.413116594631,33.54822642017098 173.44650331919547,33.67722017925189 173.36860096183955,33.54822642017098 172.98465362936258,33.65787113221086 172.9345735425013,52.35917998025252 172.81772000651108,52.443000954164745 170.8924188898527,52.565508331175806 170.80338762432802,60.16050134762918 170.4639559245843,60.24431196225123 169.0005044977588,60.25720589311095 168.91703768633306,60.39259200790184 168.9059087781352,66.52334468405752 168.64994388978812,67.23243645131515 168.30494773594546,72.3763365448649 168.37728563917335,72.60838231287198 169.41783855482936,73.68480569914755 169.5903366317507,74.00708458215377 169.75170580047416,79.95605749023525 169.8908171528601,80.03984184109868 169.9464616937912,80.271859463679 170.51403601141647,80.20741020952846 170.56411609827774,81.47060360934847 170.65314736380242,81.77350847723574 170.02992850521696,81.83151137141977 169.85743042829563,81.95396175096539 169.8908171528601,83.44268159854619 165.81763675573166,83.43623699945965 162.66815573826898,83.78424440972594 162.68484910056577,84.029137364505 163.63080629662727,86.62623320420971 160.93761051489855,86.76800707658549 160.88753042806638,86.8260053872691 160.95986833129427,86.87755939653289" stroke="#ff5b00" stroke-linecap="round" stroke-linejoin="round" stroke-width="0.5"><title>2023-07-09 27.9km</title></polyline><polyline fill="none" points="66.7135929686483,135.19896533719293 65.7234429459204,131.93882978225156 61.181845734186936,132.01464818694512 60.33080769813387,128.1288753008339 60.33080769813387,127.23796789008338 60.59266555542126,126.95363393981097 60.44537051068619,126.00584782219084 60.87088952874183,119.11515211277583 61.083649037755094,118.69809222978074 60.14259736324311,118.39477477529726 59.978936202445766,118.15780732490384 59.99530231853714,117.8544881064081 58.53871798759792,117.15305862061359 58.17048037581844,116.82129958653968 57.50765267465613,116.66015905678069 54.283527807245264,115.14352861061343 56.034702227596426,115.95872055314248 56.06743445977918,116.05350984960387 55.57645097744535,116.24308815242694 58.60418245190522,117.59856174550077 58.53871798759792,118.73600684198027 54.095317472325405,118.77392143868929 53.96438854371081,120.12935810691124 52.40960751628154,120.12935810691124 52.55690256098751,115.90184692881303 52.712380663782824,114.92551094843657 52.606000909232534,115.40894072611263 49.49643885434489,115.39946173506178 49.635550841048826,113.02968361964304 49.54553720258991,112.86853651245474 48.17078345202026,112.20498665475316 48.06440369755728,112.23342460302229 48.3098954387242,112.32821770101145 47.802545840269886,112.24290391719114 30.36444915898028,104.31785958364344 30.315350810764357,104.23253844112332 30.446279739349848,104.24201857193111 30.519927261717385,104.48850163348106 30.429913623287575,103.88177292048204 30.249886346427957,104.06189592090232 29.85709956055507,104.11877679580357 29.284285497822566,105.88206663719029 28.523261100170203,107.52208573916141 23.384300651639933,107.53156553419831 23.228822548873723,107.7116814556066 23.547961812408175,107.82543869970687 23.71162297320552,107.74012077968655 23.26155478102737,107.74012077968655 23.187907258659834,107.53156553419831 22.983330807706807,107.51260594320047 19.194574935594574,107.52208573916141 19.08001212310046,109.78772922793723 18.891801788151497,110.08159525459632 18.891801788151497,112.03435878232267 18.77723897562828,112.1291520834784 17.762539778777864,112.1291520834784 17.574329443858005,112.2523832303632 17.51704803755274,114.71697183624929 15.111228974099504,114.75488807330112 15.086679800006095,114.59374395899067 15.323988483083667,114.58426488471741 15.152144264313392,114.47051591824857 15.119412032159744,114.18614289267862 14.972116987453774,114.75488807330112 13.212759509013267,114.7359299567106 13.032732232182752,114.63166024632665 13.0,112.80218173997127 13.130928928643698,112.22394528788573 18.998181542672683,112.17654869779653 19.14547658734955,107.76856009507901 27.230337929999223,107.74012077968655 28.727837551152334,107.87283751025097 29.930747082893504,104.84874493118696 30.110774359782226,104.72550396028237 29.56250947114313,104.83926486232667 30.168055766029283,104.53590214723226 47.925291710853344,112.73582692012133 48.03985452343477,112.56520002282195 47.95802394300699,112.77374396581581 48.29352932263282,112.2523832303632 49.59463555086404,112.90645350397972 49.480072738282615,115.92080480743607 52.64691619944642,115.98715735220321 52.425973632372916,120.15779362944886 60.43718745265505,120.20518614762841 60.10168207305833,126.50817566851765 58.522351871506544,126.52713138313993 58.41597211698536,126.8209444652748 58.661463858152274,126.99154518342402 64.57781482045539,127.02945641159022 64.41415365965804,127.20005674700224 64.43051977572031,127.46543442393158 67.0,136.11822707952524" stroke="#ffc500" stroke-linecap="round" stroke-linejoin="round" stroke-width="0.5"><title>2023-05-01 23.3km</title></polyline><polyline fill="none" points="78.7026097511989,93.32556389668753 79.0958931822679,93.07279049911449 81.00768763909582,93.41403446457844 80.97491401981097,94.43776074806374 81.26987659320002,94.57678465577919 81.2589520533802,95.44884017169534 81.58668824605411,95.75216239738074 85.80356059072074,95.85326964170235 85.77078697149409,97.38250669821718 85.69431519322097,96.06812226322654 86.16407040262129,95.76480080741749 91.75743475626223,95.80271602980793 92.23811450536596,95.79007762361289 92.28181266435422,95.6510550709063 92.75156787375454,95.79007762361289 97.56928990490269,95.87854643992614 97.49281812668778,102.76628272150265 97.90795063728001,102.5261662158664 101.28363342100056,102.7789204194778 101.32733158004703,104.0805964425017 101.07606716576265,103.91630798613915 101.27270888123894,104.04268374103412 101.52397329558153,110.65195695612783 101.97187942545861,111.04370018764166 102.02650212420849,111.57444711605785 105.5005057657836,112.92657787854114 108.5812259761733,113.38149707754201 109.96864252479281,113.36886045553547 110.0232652236009,112.9013045409738 110.7442848472856,112.59802409026452 110.56949221127434,110.71514143166132 112.65607930411352,110.57613554317504 112.79809832083993,109.09760876306973 114.01072223350639,109.07233464840101 114.33845842612209,108.3520202241125 114.55694922117982,108.33938309178484 122.5427877807524,108.60476260189898 124.23609144246439,108.9459639981651 125.74367792840349,109.50199390004855 126.93445276154671,110.20966472975852 127.0,110.39921873341518 125.91847056447295,113.28040406581567 121.67974914022489,113.28040406581567 118.56625531055033,112.77493777628115 118.38053813477745,112.48429373078397 118.58810439007357,110.37394488292921 119.70240744494367,106.11522782062093 122.00748533284059,101.5404199189361 122.04025895206723,98.583134198263 121.37386202713242,97.74901526817848 122.22597612795653,98.63368668108888 124.509204936272,98.86117259970342 122.28059882670641,98.69687725573021 121.94193809432909,98.4188384873487 121.53773012349848,98.4188384873487 121.47218288492877,101.72998712061235 119.23265223548515,106.03940364521986 118.06372648192337,111.11952131592989 117.85616022662725,114.10178241064568 118.11834918067325,115.76979560938344 118.82844426465454,117.14715330474428 119.63686020643217,118.09486764355097 121.22091847064439,119.29529545397236 122.13857980986359,120.68525004397816 125.37224357679952,124.04634886012354 126.66133926768089,125.81531181077298 126.70503742672736,126.18173670994292 125.72182884893846,127.38208658989606 125.21930002025329,128.8983014857222 124.80416750966106,129.08782705016347 123.98482702818,128.9867467850272 123.24195832497207,129.11309710366913 122.26967428688658,130.32605364307528 121.8217681570095,131.38738092791027 121.76714545825962,132.54977662829333 121.85454177635256,133.68689236350474 122.37891968444455,135.0135142717263 122.20412704837508,135.40518089636316 121.75622091855621,135.55679345277895 120.37972890964011,134.45759823900153 118.89399150322424,134.39442580563627 118.33683997578919,134.1543702666895 114.05442039249465,128.9993818225994 113.63928788190242,128.14019634445867 112.81994740036316,125.20881305753574 112.36111673078267,124.31169490412867 112.66700384387514,124.12216207323945 114.18551486957585,125.38570883226203 114.89560995349893,124.80447891489166 114.60064738010988,124.94346892448084 114.07626947201788,124.80447891489166 112.50313574756728,124.0716199362796 111.88043698162073,124.05898439882003 111.44345539150527,124.27378836101707 111.37790815299377,124.12216207323945 111.3997572324588,124.84238529652794 112.85272101964802,129.51741726228647 111.83673882257426,129.95964093334624 111.96783329965547,129.44160733248282 111.74934250459773,130.41449792880303 111.17034189763945,130.99570167301135 110.42747319443151,131.36211133571487 109.50981185521232,131.28630252838775 109.1056038843235,131.6779808696956 108.6467732146848,132.5624113045851 108.41735787986545,133.85114155637712 108.3845842605806,136.03689866443892 107.2702812057687,137.72988649005129 106.65850697958376,137.5277398992912 106.82237507589161,137.28769039680628 107.09548856969923,137.72988649005129 106.97531863243785,138.08364223488024 103.88367388234474,140.74941215662693 102.72567266848637,141.12842694644496 101.34918065957027,141.2547649535336 100.34412300219992,141.7980169246439 100.00546226988081,142.22756331825076 99.63402791827684,143.75623112069297 98.72729111876106,144.7037430727505 97.40542180865305,145.09537924218603 95.88691078301053,144.8679777452635 95.34068379527889,144.943778290326 93.5709083552938,146.19448062823358 92.9263605097658,146.8893098372355 92.24903904512757,146.9272095008855 91.39692494436167,145.5501809913112 91.34230224561179,144.36263959987264 91.80113291525049,143.55409430524742 91.604491199716,142.97294913460064 90.31539550883463,141.43163794833526 88.85150718188379,140.78731368749868 87.92292130284477,139.20807346870424 86.54642929398688,139.2333414697423 86.29516487964429,139.08173338658526 85.46489985840162,137.56564241004526 85.39935261989012,136.07480162867432 84.76572931418195,134.3312533402277 79.83876188553404,130.65456067354535 79.69674286874942,130.3639583446129 79.95893182279542,129.8080215657974 79.39085575559875,130.25024420533737 77.57738215662539,128.3549932695023 74.3764920089161,125.66368739926838 73.0,123.9073578495736 73.09832085773814,123.67991767963395 74.74792636052007,122.93441643338883 78.32025085983332,121.92356015940459 77.33704228204442,117.981142303659 77.10762694716686,116.17415908111434 76.95468339067884,106.33006273365027 77.16224964597495,105.74874387833552 77.07485332794022,99.72056009644439" stroke="#ffb100" stroke-linecap="round" stroke-linejoin="round" stroke-width="0.5"><title>2022-10-12 24.1km</title></polyline><polyline fill="none" points="133.0,133.2154126135265 133.0446982865542,133.15077302872487 133.151974174325,133.18180004991154 133.18102806058596,133.432600416656 133.21455177551252,133.40674482293616 133.24360566177347,133.02925016509653 133.97442264713754,133.00856536460014 133.99677179040737,132.92582599456364 134.09957784951257,132.88962743564298 134.0772287062282,132.3828422074639 134.1219269927824,132.31561483782752 135.21703501365846,132.07514625501608 135.61261484975694,132.10876027947052 135.72212565183872,132.08548903649535 135.79364291035745,131.92776116237292 136.1758132604882,131.9794753271235 136.31884777749656,131.8165753524845 136.4484728085372,131.75968940153325 137.7067295753659,131.97688962137363 137.76483734790236,131.93551829377793 137.77601191953,131.59678802069357 137.83858952073206,131.5269728241292 138.18947107027634,131.56317332031722 138.73032033772324,131.55024457758736 138.94040228457015,131.63557415829018 139.85001241619466,131.66401728829987 140.03104047678062,131.5942022760828 140.34839831139834,131.68728891650244 147.66774273652118,131.92776116237292 147.75266948100762,131.81140390764995 147.78842811024515,131.2580532410375 147.83983113980503,131.2037518266825 150.64241370746458,131.36406995430661 150.74745468089532,131.24512434335702 150.80556245343178,130.13838636554647 150.96647628507344,129.12986827099485 151.02234914328437,129.02125624668042 151.08045691582083,128.99539617257506 151.12068537372397,128.88161153439796 151.23913583313697,128.1083797240044 151.22796126148023,128.0049355597439 151.57213806803338,126.38856587701412 151.90961013160995,124.48499727745366 151.96101316116983,124.25221416977001 152.02806059102295,124.18755181738379 158.23888750931656,125.2660983625774 160.50062080954376,125.70319413427205 161.90191209336626,125.91268707885683 161.97566426619596,125.30489414894691 162.01589272411366,125.24023447212858 162.94785199900798,125.3229988290077 163.00819468586997,125.26092558659002 163.0774770300486,124.71519181149233 163.1177054879663,124.64535773474381 163.92003973180545,124.7255375843306 164.05636950585176,124.67380867803695 164.1792897938867,124.10995677756 164.68885026073258,122.24501811191476 164.93022100819508,121.1766906709563 165.09113483983674,120.82746978894829 165.4241370747477,120.3152704864442 165.68785696548002,120.01001549037755 165.94263719891023,119.7875392014248 166.28457909113786,119.57282186724478 166.79413955798373,119.3684506720383 170.3320089396584,118.58199429227898 173.78271666253568,117.11767186771613 173.90116712191957,116.72699915684643 174.2565185001149,116.22247915545631 174.85100571144721,115.43075065544326 175.19965234665142,115.09956278953359 178.78892475788598,110.22697984353545 179.06158430593496,109.98889023727315 179.46386888502457,109.85690482001337 179.36106282591936,109.41436047407842 181.24733051900694,109.05980183723841 183.07996026819455,107.60787139498643 183.1872361559508,107.37752185805402 183.40178793146333,107.43446238747674 184.03426868637325,107.15234669521669 185.5987087161775,106.56739958334583 185.69034020364052,106.73046141629675 186.95977154209686,106.68128414840248 187.0,106.73046141629675" stroke="#ff0b00" stroke-linecap="round" stroke-linejoin="round" stroke-width="0.5"><title>2021-09-30 31.4km</title></polyline><polyline fill="none" points="58.360794409702066,189.94102860079147 58.31445384334074,187.41365182374284 60.53218094888143,187.31408676248248 60.777123942621984,187.19154496820556 60.88966531812912,186.97709634917555 60.472600220673485,176.75944479522877 60.30709819786716,175.54150642208697 59.83045237220358,174.11672335476032 57.9834497977281,170.51634507347626 57.16255976463435,169.12210984839476 56.65943361533573,167.95001303029858 58.07613093050895,167.2222313238526 59.68481059212354,166.11139306484256 66.53659433615394,158.427008292776 66.95365943360957,157.86003360781615 66.54983449797146,157.50758773427515 66.77491724898573,157.67614900991612 67.0,157.51524961861287 66.43729312246433,158.381037531326 59.360426627419656,166.27993509567023 57.2221404928423,167.59761434472603 56.732254505332094,167.7431705232666 56.23574843694223,167.63591862950852 56.01728576683672,168.01896040649444 55.49429937475361,168.179837372365 54.49466715706512,168.92293128241727 52.164398675988195,170.19460077198892 51.60169179845252,170.46272111859435 51.31702831925941,170.47038168591098 51.21110702463193,170.69253779949213 49.4567855829373,171.73436463197868 46.371827877883334,173.20515447206708 45.828981243103044,173.06726914355386 43.00882677457412,174.3848297520526 41.962853990437,175.14318268471106 40.65207796986215,176.5373065589083 39.91062890770263,177.0658412886769 39.44060316294781,177.6096919981719 38.59985288712778,178.18417792386754 38.16954762779642,178.19183770665404 36.971312982728705,178.85057611428783 35.22361162194284,180.27526973236672 28.17984553144197,182.91011603963125 23.393527031992562,183.27010242789402 22.168812063260702,183.58413170377753 20.374770136084408,183.8368860248156 18.17028319236124,184.67939431080595 13.0,186.28013412664586 16.171018756896956,195.55456563960615 17.08458992280066,195.50095948483067 17.62743655758095,195.25590229227237 17.73335785215022,195.33248275046208 18.42846634791931,198.5105032259671 19.481059212965192,201.87216717153206 18.73299006986781,202.43881103905005 18.792570798075758,202.49241226572485 19.699521883041598,201.9487409157373 19.547260022052797,201.15237017827894 19.64656123574241,200.96859112242237 20.99705774182803,200.48616897148895 23.936373666801956,199.67446759936138 23.638470025762217,197.73706960218988 23.751011401269352,197.61454473638878 31.787789628549945,197.5226509564891 32.05259286504588,197.10146970003552 32.27105553512229,194.54370030859718 32.264435454213526,191.98584420634143 32.3703567488119,191.80970122336294 36.2100036778138,191.5952657324451 40.943361529993126,191.50336462120322 48.58955498345313,191.5569736163743 55.34203751379391,191.46507245847897 55.62008091213647,191.33487895980943 55.732622287614504,191.13575905666949 55.752482530340785,189.489170484223 55.984185362263815,189.30536301829852 55.970945200446295,189.12155510450248 56.54689223979949,189.1368724477652 57.28834130195901,188.79223147222365 57.53990437663742,188.2790964356027" stroke="#ff9900" stroke-linecap="round" stroke-linejoin="round" stroke-width="0.5"><title>2021-08-04 25.2km</title></polyline><polyline fill="none" points="94.28837456891779,153.4091180552714 94.20163259390392,154.6441780760506 91.66609793988755,154.6904924365881 91.4659241514164,154.82171630491212 91.37918217640254,155.13819646735647 91.39252709565335,158.51133002294227 83.31217850092798,158.22573870038468 83.17872930862359,158.36467515343975 83.25879882401205,159.30634886709595 86.28809548958088,163.6826630386131 88.26314353584894,168.76103299654642 88.65681865316583,169.65627279486216 89.11721836667857,170.3508481400204 89.87120630327263,171.2306344747194 92.2666193053301,173.2448438302381 93.28750562653295,174.24806997760606 96.41021672674106,176.50913887468778 96.71047740941867,177.50460524678783 96.73716724786209,178.39974218378484 97.25761909791618,179.30258515406604 97.48448272483074,179.4414831219692 98.21845328257768,179.3488845048778 98.86568186531076,180.42919469493063 99.66637701922446,180.73785193293588 100.49376201158157,181.7409793123661 100.5404692288721,182.13451028926647 100.31360560192843,182.48174181464128 100.36031281924807,183.24564559498685 100.79402269425918,184.0712703536774 100.96083418466151,184.14843108854984 101.37452668088372,184.04812211797253 102.74238090211293,182.85212036246958 103.14940093862242,182.7981069364905 104.18363217910519,182.93699852585996 104.90425781760132,182.7286610467636 105.4247096676554,182.22710551758064 105.64490083494456,181.21626817826473 105.9585064369021,180.87674728166166 106.55235534266103,180.5835234703991 107.62662134083803,180.49092624268087 109.40149559863494,179.14053720442462 110.22220813136664,178.32257562114683 110.78936719868216,177.4042875202067 110.87610917372513,176.9567145135661 110.76934981986415,176.18503073432657 110.90279901216854,175.25128289886197 111.06293804294546,174.91173539077136 111.48997545838938,174.50273297168314 112.21060109688551,174.4718647753616 112.43746472380008,174.363825989647 113.0046237911447,173.6847215384987 113.61849007580895,173.50722733066505 114.39249539122102,173.66928727599588 116.73452871636255,176.34708497706015 116.82127069137641,176.64804194085445 115.8671089663112,177.35027022805298 114.55930688162334,178.77785720981774 113.65852483350318,179.47234930264676 112.04378960645408,181.60208554066048 111.44994070066605,182.18852418613096 109.3414434620936,183.52342688717908 107.41310263311607,183.59287205187138 107.0394448946463,183.72404607893986 106.72583929268876,183.98639345499396 106.39888877150952,184.4802213572475 105.8250572445977,185.93853818289062 104.52392761950614,188.08352486808144 104.3304262906313,189.780953512447 103.58311081366264,191.3471836490935 102.94255469055497,192.22672733437503 100.70728071927442,194.6338475792727 101.18769781160518,197.4652025386531 101.7548568789498,198.9772726983647 101.7615293385461,200.2347367556722 102.27530872897478,200.9907480988113 103.50971375787049,202.14017954042356 104.46387548293569,203.78329638382274 104.2036495579523,204.05328871915117 102.89584747326444,206.3134727380675 101.94168574819923,206.8688660571206 101.20771519042319,207.0 100.88743712889845,206.93828993734496 99.06585565378191,205.94320827617776 98.66550807683961,205.9354944141014 97.10415252673556,206.3211865619087 94.82884379778989,205.58836981167406 93.7679227188928,205.41866387490882 92.46679309380124,205.65779485867824 91.34581987833371,206.26718977874407 90.79200573023991,206.44460763684765 89.51756594362087,206.34432802867377 88.00959007043275,206.72230432446668 86.61504601076012,206.55260091341188 86.61504601076012,205.66550874887616 87.08211818384007,205.47266125943133 87.08211818384007,204.72440837896283 87.50915559928399,204.06100277181395 87.92284809544799,203.82958085212886 87.98290023198933,203.3204501542059 87.85612349928124,203.14302502061037 87.84277858005953,202.85760111254785 88.22978123778012,202.42560613646492 88.28316091469605,202.21732196913945 88.06296974734869,201.59246605021326 88.0696422069741,200.8518894350127 87.86946841853205,200.31959554557397 88.31652321279398,199.59443556586484 88.51669700123603,199.46328887491836 89.19061542244162,199.37842913105123 89.45084134745412,199.1238493321871 90.04469025324215,199.00041639613482 91.34581987833371,198.4063925938026 92.62693212454906,198.09780697197857 96.2167153978371,196.92517020670493 97.0107380921254,196.41599335800856 98.05831425180077,195.33590998560248 100.18015640965314,194.92701728324755 100.88743712889845,194.59527253421402 103.04264158479054,192.26530357926094 103.6631803290511,191.3934756752933 104.39715088679804,189.7963845084014 104.50391024065902,188.39215107270138 104.71742894835188,187.8752014727288 104.6173420541163,187.70545606249652 102.99593436750001,187.2733751286505 102.05511756165652,186.40149006355932 100.47374463273445,185.34441247797076 100.11343181348639,186.17001447513758 100.44705479426193,185.34441247797076 100.43370987501112,184.57281373227306 100.79402269425918,184.10985073090706 100.34696790002636,183.19934861439106 100.32027806155384,182.4740255757133 100.60719382503885,182.06506379412167 100.50710693080327,181.67924877845508 99.66637701922446,180.7069862654389 98.86568186531076,180.39832890228718 98.2451431210502,179.37975072308473 97.30432631520671,179.34116794832516 96.76385708633461,178.3457255981557 96.750512167142,177.5277554726199 96.38352688823943,176.4242535427693 93.0940042976581,173.9548206256295 91.78620221299934,172.61203284213116 89.92458598015946,171.04541714439256 89.14390820515109,170.05758376770973 89.1639255839691,169.91866867049976 89.44416888785781,169.74116567719466 90.55846964369994,169.30126516973542 96.73049478829489,167.80404087308852 97.1441872844589,167.5107666834665 97.45112042679102,166.94736835754884 97.31099877483211,161.42121290588693 97.21758434025105,160.1939814463476 97.1575322036806,159.9547075970986 96.98404825368198,159.83121112226945 96.93734103636234,159.0361977649227 96.63708035365562,158.75060841342201 94.34842670543003,158.58079802030989 94.22832243237644,153.71788494122302 94.06151094194502,153.50174825271824 94.0348211035016,153.0 93.79461255730712,153.0694730325049" stroke="#ff1f00" stroke-linecap="round" stroke-linejoin="round" stroke-width="0.5"><title>2021-06-23 30.5km</title></polyline><polyline fill="none" points="133.0,192.7150887432872 133.03240879667283,192.28391002836543 133.80559008874116,192.26516296782393 133.840313799461,192.16874930314043 133.9352252754179,192.13661133659843 133.9213357911358,190.82159928903457 134.94221288635163,190.41181635100838 135.53251596860355,190.2189751179758 135.58575899172865,190.16272949269842 135.59964847601077,189.85471560788028 135.37741672739503,187.4788702097685 136.72238178933912,187.29404349741526 136.7501607579179,187.19493298746966 136.68765807861928,186.84670391681357 136.50477986881742,186.38864174919036 137.25944184849504,186.0189717395515 137.49324816734588,185.93860800792572 137.84048527457344,185.66269066450877 138.0465126248455,185.57428935128883 138.49792086423258,185.5046396229518 138.9215501350409,185.48856658257864 139.51879795943387,185.53142800179194 140.50032151582127,185.51267613946584 140.92626570069115,185.57964701507444 141.35915462767298,185.74037642227086 141.3799888541107,185.6492965452053 141.48184507223777,185.6359024190915 141.5188836969901,185.13495721447907 141.5674968920066,185.07870074121456 143.93565396321355,185.27961616577886 147.08856689672393,185.31176249156124 148.89882968233724,185.6171506310966 150.48917563338182,185.93860800792572 150.53084408624272,185.85288642411615 150.83409782653325,184.30449231576313 150.89660050584644,184.29109750616954 153.5471770909062,184.80277439532256 154.82732455950463,184.92600399417097 154.9361255197873,184.79741657360682 155.1166888155276,183.7338673939921 155.07270544861967,183.59187899124845 155.0981695031369,183.56776767704832 161.12620568438433,184.60989212730237 161.87160800787387,184.77062744868817 163.78141209755267,185.08137962361798 164.0777210957167,182.62473008202505 164.13327903287427,182.45058592520945 165.09396836282394,182.57382652446904 165.3069404552516,182.56310997350374 167.4505508637958,183.11768576234863 167.2167445449304,183.01052226855063 167.31165602090186,182.62740921391378 167.28619196638465,181.06542910358985 170.13585115958995,181.0922219958975 171.51091010415985,181.0573912305772 171.83731298493512,180.9904088601379 171.54794872894126,178.36456572169482 171.55489347106777,177.50977050348956 171.60582158011675,177.273960043005 175.05272859774414,175.7920573364663 175.09208213657257,175.72238173851292 175.09439705060504,175.55355164029424 175.17310412824736,175.3740009827743 175.82822480385948,174.46014955430292 176.10138466153876,174.1010320989808 176.53195867448812,173.68294888933997 180.22193166715442,168.66007113448177 180.4140695331589,168.46975114911947 180.74741715607524,168.31427746318695 183.48827538902697,167.67360895889033 185.1550135036523,167.5261725756027 185.84485788998427,167.502046543299 187.0,167.28491125671098" stroke="#ff0200" stroke-linecap="round" stroke-linejoin="round" stroke-width="0.5"><title>2021-04-30 31.8km</title></polyline><polyline fill="none" points="13.0,252.79990940224525 13.048758465010906,252.7742689672632 13.15514057049586,252.82554981119756 13.179519803001313,253.05118428740207 13.212764210969908,252.9716996451025 13.210547917100484,252.6588866876573 13.926410835221759,252.63837422720826 13.97960188795696,252.55888828556454 14.063821054805885,252.54350388086823 14.057172173212166,251.2640014170338 15.55317053150793,250.694743007567 15.958752308652038,250.62294373808618 16.85856761748437,250.58704402676995 16.869649086816935,250.50242307669578 16.92505643342156,250.43831610751477 16.91840755182784,249.9459691581378 16.960517135245027,249.87160341963136 18.070880361177842,249.83826698297707 18.12185512004362,249.77159397760443 18.139585470969905,249.1997375068222 18.769012928387383,249.16127135991337 18.80447363021085,246.2274138096218 18.857664682960603,246.16073126482843 19.112538477333146,246.17355484481777 19.1612969423295,246.12482520618323 19.451631438540062,246.09917799016148 19.38292632876255,246.0196714548092 19.292058280319907,245.69651328104737 21.8851221013756,245.7965388723369 23.545126205630368,245.94272940787778 23.669238662012503,245.84270439611646 23.68253642519994,245.4349060137356 23.74016006567399,245.32974938710868 23.684752719069365,245.23998118835152 23.720213420892833,244.88347004601928 24.8017648265959,244.62185434832827 24.91257951980515,244.493610368394 24.950256515512592,243.71900286900927 25.814611122521455,243.4009452195769 26.273383952400764,243.27013002245985 26.98259798892832,243.1470092172167 27.24412066488003,243.14444419404754 27.494561871542828,243.27269503284515 27.75608454750909,243.18291951415995 28.352267596972524,243.25730496662618 31.732115739796427,243.85494564102737 31.82520008207939,243.89598482446308 33.89300225734769,244.22686080194217 35.39564949723717,244.50899968040721 40.109706546281814,245.32974938710868 40.564046788436826,245.4349060137356 42.58530679253454,245.75037326408892 42.66066078392032,245.6375236438962 42.959860455579474,243.2803900624367 43.03964703468955,243.24191489100667 44.030330391949974,243.37273023444686 44.38050482250401,242.069676535275 44.59770162119821,241.0641245117804 44.68413708188746,240.82555654007774 44.81489841986331,240.54594174344493 45.14734249949106,240.03800968585892 45.610547917094664,239.55828668094182 45.982885286270175,239.31713904948447 46.46160476093064,239.12216693783012 50.005458649713546,238.33456687654143 52.618469115535845,237.2005848092631 53.434065257548355,236.88501059052578 53.471742253241246,236.82856600478954 53.48282372255926,236.6258775868664 53.560394007799914,236.46937022494603 54.407018263911596,235.2942511205947 54.87908885696379,234.8221354403231 58.31656064026174,230.14155360460063 58.55370408372255,229.8797848630602 58.755386825374444,229.7617314031686 58.994746562690125,229.68987250448663 61.51910527396831,229.10472812557782 63.194623435265385,228.94817403463094 63.841781243580044,228.93020874882313 65.28458854915516,228.65302842929486 66.98226964908827,228.38867768957607 67.0,228.32964753370652 66.92907859635307,227.93696514867588 66.63652780628763,226.94881571259975" stroke="#ff0000" stroke-linecap="round" stroke-linejoin="round" stroke-width="0.5"><title>2021-04-09 31.9km</title></polyline></svg>