<?xml version="1.0" encoding="utf-8" ?>
<svg baseProfile="full" height="300mm" version="1.1" viewBox="0,0,200,300" width="200mm" xmlns="http://www.w3.org/2000/svg" xmlns:ev="http://www.w3.org/2001/xml-events" xmlns:xlink="http://www.w3.org/1999/xlink"><defs /><rect fill="#222222" height="300" width="200" x="0" y="0" /><text fill="#FFFFFF" style="font-size:12px; font-family:Arial; font-weight:bold;" x="10" y="20">Over 20km Riding </text><text fill="#FFFFFF" style="font-size:4px; font-family:Arial" x="10" y="280">ATHLETE</text><text fill="#FFFFFF" style="font-size:9px; font-family:Arial" x="10" y="290">Joe</text><text fill="#FFFFFF" style="font-size:4px; font-family:Arial" x="120" y="280">STATISTICS</text><text fill="#FFFFFF" style="font-size:3px; font-family:Arial" x="120" y="285">Number: 6</text><text fill="#FFFFFF" style="font-size:3px; font-family:Arial" x="120" y="290">Weekly: 1.0</text><text fill="#FFFFFF" style="font-size:3px; font-family:Arial" x="141" y="285">Total: 175.0 km</text><text fill="#FFFFFF" style="font-size:3px; font-family:Arial" x="141" y="290">Avg: 29.2 km</text><text fill="#FFFFFF" style="font-size:3px; font-family:Arial" x="167" y="285">Min: 24.1 km</text><text fill="#FFFFFF" style="font-size:3px; font-family:Arial" x="167" y="290">Max: 31.9 km</text><polyline fill="none" points="21.60347966826521,34.43408519559307 22.1278575763572,34.09705399881932 24.676916852069553,34.5520459527761 24.63321869308129,35.9170143307565 25.02650212420849,36.102379541043774 25.011936071212403,37.26512022892712 25.448917661386076,37.669549863174325 31.07141412096098,37.804359522269806 31.02771596191451,39.84334226428473 30.925753590941895,38.090829684297205 31.552093870122917,37.68640107655665 39.00991300831083,37.736954706400866 39.65081934048794,37.720103498140816 39.70908355247229,37.53474009454658 40.335423831653316,37.720103498140816 46.75905320653692,37.83806191990152 46.657090835564304,47.021710295332014 47.21060084970668,46.70155495448853 51.711511228000745,47.03856055930373 51.7697754399851,48.77412858999742 51.43475622095866,48.555077314857044 51.69694517494645,48.723578321383684 52.03196439403109,57.535942608170444 52.62917256727815,58.0582669168507 52.702002832258586,58.76592948807229 57.334007687692065,60.56877050471667 61.44163463485893,61.17532943672268 63.29152336635161,61.158480607380625 63.364353631506674,60.5350727213081 64.32571312965592,60.130698787019355 64.09265628166031,57.62018857555813 66.87477240542648,57.434847390904906 67.06413109443383,55.46347835076449 68.68096297798911,55.42977953120135 69.11794456810458,54.46936029882636 69.40926562820096,54.4525107890513 80.05705037427833,54.80635013587016 82.31478858995251,55.2612853308965 84.32490390451858,56.00265853339806 85.91260368202347,56.94621963967802 86.0,57.19895831121539 84.5579607526306,61.04053875441605 78.90633218694711,61.04053875441605 74.75500708073378,60.36658370170335 74.50738417968387,59.979058307711966 74.78413918672595,57.16525984391046 76.26987659325823,51.486970427504275 79.34331377712078,45.38722655858146 79.38701193610905,41.44417893102218 78.49848270282382,40.33202035757131 79.63463483721716,41.51158224145183 82.67893991502933,41.814896799609414 79.7074651021976,41.59583634097362 79.25591745908605,41.22511798313644 78.71697349793976,41.22511798313644 78.62957717990503,45.639982827487984 75.6435363139608,51.38587152695982 74.08496864256449,58.15936175457318 73.8082136354642,62.13570988085121 74.15779890754493,64.35972747918277 75.10459235287271,66.1962044063257 76.18248027516529,67.45982352473948 78.29455796082038,69.06039393863466 79.51810641313205,70.91366672530421 83.82965810241876,75.39513181349321 85.54845235688845,77.7537490810355 85.606716568931,78.24231561325723 84.2957717985264,79.84278211985657 83.62573336035712,81.86440198095806 83.07222334621474,82.11710273355129 81.97976937086787,81.98232904670294 80.98927776655182,82.15079613823036 79.6928990491433,83.76807152410038 79.09569087601267,85.18317457054218 79.02286061103223,86.73303550439596 79.13938903505914,88.24918981800147 79.83855957927881,90.01801902896841 79.60550273110857,90.54024119515088 79.00829455803614,90.74239127036708 77.17297187948134,89.27679765199719 75.19198867090745,89.19256774084351 74.44911996764131,88.87249368891935 68.73922718997346,81.9991757634707 68.18571717583109,80.8535951259546 67.09326320048422,76.94508407670946 66.48148897435749,75.74892653884308 66.88933845842257,75.49621609765745 68.91401982604293,77.18094510967785 69.86081327131251,76.40597188651736 69.4675298401271,76.59129189931264 68.76835929596564,76.40597188651736 66.67084766342305,75.42882658170129 65.84058264218038,75.4119791984267 65.25794052198762,75.69838448136579 65.17054420395289,75.49621609765745 65.19967630994506,76.45651372871362 67.13696135953069,82.68988968305348 65.78231843007961,83.27952124446165 65.95711106614908,82.58880977664376 65.66579000611091,83.88599723840889 64.8937891968526,84.66093556401029 63.903297592594754,85.14948178095801 62.679749140224885,85.04840337118367 62.1408051790786,85.57064115960384 61.529030952835456,86.74988173945167 61.223143839801196,88.468188741841 61.179445680754725,91.38253155259008 59.69370827433886,93.63984865340171 58.87800930609228,93.37031986571674 59.09650010115001,93.05025386241323 59.46065142628504,93.63984865340171 59.30042484321166,94.11152297983062 55.17823184304871,97.66588287550258 53.63423022459028,98.17123592858843 51.79890754603548,98.33968660471146 50.4588306696387,99.06402256619185 50.00728302646894,99.63675109100586 49.512037224369124,101.67497482759063 48.30305482499534,102.93832409700553 46.540562411479186,103.46050565625774 44.51588104397524,103.15730366035132 43.78757839370519,103.25837105377286 41.427877807000186,104.92597417098295 40.568480679707136,105.85241311631398 39.66538539348403,105.90294600118068 38.529233259148896,104.0669079884101 38.45640299416846,102.483519466492 39.06817722029518,101.40545907366322 38.80598826624919,100.63059884612449 37.0871940117795,98.57551726444217 35.13534290913958,97.71641824999824 33.897228403773624,95.61076462494384 32.06190572527703,95.64445529298973 31.726886506192386,95.44231118210882 30.619866477849428,93.42085654672701 30.532470159814693,91.43306883823243 29.68763908557594,89.10833778696542 23.11834918067325,84.20608089806046 22.928990491607692,83.8186111261457 23.278575763688423,83.07736208772985 22.521141007484403,83.6669922737783 20.10317620879505,81.13999102600792 15.835322678496595,77.55158319901966 14.0,75.20981046609813 14.131094477022998,74.9065569061786 16.33056848065462,73.91255524451844 21.09366781305289,72.56474687920127 19.782723042648286,67.30818973820715 19.47683592955582,64.89887877482397 19.27291118755238,51.773416978205205 19.549666194652673,50.998325171123724 19.433137770567555,42.96074679525918" stroke="#ffff00" stroke-linecap="round" stroke-linejoin="round" stroke-width="0.5"><title>2022-10-12 24.1km</title></polyline><polyline fill="none" points="114.0,87.62055015136502 114.05959771540074,87.53436403829619 114.20263223242364,87.57573339987721 114.2413707474334,87.91013388887222 114.28606903400214,87.87565976391124 114.32480754902645,87.37233355345961 115.29923019616399,87.34475381946322 115.32902905387164,87.23443465941455 115.46610379933554,87.18616991418821 115.43630494161334,86.5104562766137 115.49590265704319,86.42081978376518 116.9560466848634,86.10019500668568 117.48348646634258,86.14501370595826 117.6295008691086,86.11398538199137 117.72485721379053,85.9036815498257 118.2344176806364,85.97263376949195 118.42513036998571,85.75543380331146 118.59796374471625,85.67958586870736 120.27563943380665,85.9691861618303 120.35311646385526,85.91402439169906 120.3680158927018,85.462384027589 120.45145269429486,85.36929709883407 120.91929476035875,85.4175644270872 121.64042711694492,85.4003261034486 121.92053637941717,85.5140988777166 123.133349888245,85.55202305106286 123.37472063569294,85.45893636810797 123.79786441518809,85.5830518886687 133.55699031535187,85.9036815498257 133.67022597466712,85.74853854352841 133.71790414699353,85.01073765471301 133.78644151972549,84.93833576890756 137.52321827661945,85.15209327240518 137.66327290785557,84.9934991244736 137.74074993790418,83.51784848739408 137.9553017134167,82.17315769465495 138.0297988576931,82.02834166223693 138.1072758877417,81.99386156343098 138.1609138316271,81.84214871252698 138.31884777749656,80.81117296533557 138.3039483486209,80.67324741298944 138.76285075736814,78.51808783601518 139.21281350879872,75.979996369937 139.28135088154522,75.66961889302547 139.37074745468271,75.58340242317354 147.65185001240752,77.0214644834341 150.6674944127153,77.60425884569486 152.53588279114047,77.88358277180669 152.63421902159462,77.07319219859346 152.68785696548002,76.98697929616901 153.93046933200094,77.09733177200542 154.01092624782177,77.01456744878305 154.10330270671693,76.28692241531826 154.15694065060234,76.19381031299054 155.22671964240726,76.30071677910382 155.40849267445446,76.23174490404563 155.57238639183925,75.47994237007515 156.25180034764344,72.99335748254816 156.57362801092677,71.56892089460598 156.78817978642473,71.10329305192863 157.23218276632542,70.42036064858985 157.58380928730185,70.01335398716765 157.92351626520394,69.71671893522944 158.37943878817896,69.43042915632032 159.0588527439686,69.15793422938077 163.77601191953,68.109325723035 168.37695555003302,66.15689582361665 168.5348894958879,65.63599887579039 169.0086913334817,64.96330554060478 169.80134094858659,63.90766754058859 170.2662031288637,63.46608371937327 175.0518996771716,56.96930645804241 175.4154457412369,56.65185364969511 175.95182518003276,56.475873093349946 175.8147504345543,55.885813965433044 178.32977402531833,55.413069116315455 180.7732803575782,53.47716185997706 180.91631487458653,53.170029144068394 181.20238390861778,53.245949849966564 182.0456915818213,52.86979559361862 184.13161162154574,52.08986611112414 184.25378693817765,52.307281888392026 185.9463620561146,52.241712197868765 186.0,52.307281888392026" stroke="#ff1000" stroke-linecap="round" stroke-linejoin="round" stroke-width="0.5"><title>2021-09-30 31.4km</title></polyline><polyline fill="none" points="74.48105921293609,163.25470480106014 74.41927179112099,159.88486909832136 77.37624126515584,159.75211568330997 77.70283192349598,159.58872662427893 77.85288709081942,159.30279513222922 77.29680029425072,145.67925972696685 77.07613093045074,144.0553418961208 76.4406031629187,142.15563113968528 73.97793306363747,137.35512676463986 72.88341301953187,135.49614646452392 72.21257815376157,133.93335070706235 74.10150790732587,132.96297509846772 76.24641412281198,131.4818574197925 85.38212578155799,121.2360110570371 85.9382125781849,120.48004481041426 85.39977933058981,120.01011697902868 85.69988966535311,120.23486534655967 86.0,120.02033282481716 85.24972416326636,121.17471670843952 75.81390216987347,131.7065801275603 72.962853990437,133.46348579297046 72.30967267375672,133.65756069769122 71.64766458258964,133.51455817268288 71.35638102242956,134.02528054199502 70.65906583302421,134.2397831631606 69.32622287608683,135.2305750432206 66.21919823461212,136.92613436264946 65.4689223979367,137.2836281581258 65.08937109232647,137.29384224788373 64.94814269948984,137.590050399318 62.609047443897,138.9791528426358 58.49577050388325,140.94020596275368 57.771974990842864,140.75635885807424 54.01176903274609,142.513106336075 52.61713865387719,143.52424357961718 50.86943729314953,145.3830754118826 49.880838543584105,146.08778838490252 49.25413755059708,146.8129226642268 48.133137182856444,147.5789038984949 47.559396837081295,147.58911694220296 45.96175064361887,148.4674348190456 43.63148216257105,150.36702630982472 34.239794041903224,153.88015471951076 27.85803604265675,154.36013657053263 26.22508275101427,154.77884227169852 23.83302684809314,155.11584803309233 20.89371092314832,156.23919241441035 14.0,158.37351216885872 18.228025009215344,170.73942085280578 19.446119897067547,170.66794597977423 20.169915410107933,170.34120305636316 20.311143802886363,170.4433103339543 21.237955130520277,174.68067096795858 22.641412283934187,179.1628895620379 21.643986759823747,179.9184147187334 21.72342773078708,179.98988302097132 22.93269584403606,179.26498788765457 22.729680029442534,178.2031602377101 22.862081647617742,177.95812149656558 24.66274365579011,177.31489196198527 28.581831555697136,176.2326234658176 28.184626700996887,173.64942613626044 28.33468186837854,173.48605964851595 39.050386171380524,173.36353460865212 39.40345715341391,172.80195960005221 39.694740713515785,169.39160041146533 39.68591393891256,165.98112560845766 39.8271423317492,165.74626829781482 44.9466715704184,165.46035430992924 51.257815373304766,165.33781949494005 61.4527399779181,165.40929815517302 70.45605001843069,165.2867632779744 70.8267745494959,165.11317194641742 70.97682971681934,164.84767874222598 71.00331004045438,162.65222731229733 71.31224714964628,162.40715069106955 71.29459360061446,162.16207347267482 72.06252298637992,162.1824965970227 73.05112173594534,161.72297529629577 73.3865391688305,161.03879524747026" stroke="#ffdc00" stroke-linecap="round" stroke-linejoin="round" stroke-width="0.5"><title>2021-08-04 25.2km</title></polyline><polyline fill="none" points="142.38449942524312,114.54549074035458 142.26884345855797,116.19223743472685 138.88813058653614,116.2539899154508 138.62123220192734,116.42895507320645 138.5055762352422,116.85092862313468 138.52336946089054,121.34844003058242 127.74957133457065,120.96765160051291 127.57163907814538,121.15290020457905 127.67839843203546,122.40846515612793 131.71746065281332,128.2435507181508 134.3508580478374,135.01471066206432 134.8757582042599,136.20836372648046 135.48962448892416,137.13446418669628 136.49494173773564,138.3075126329495 139.68882574042073,140.99312510698655 141.05000750208274,142.33075997013657 145.2136223023408,145.34551849957643 145.6139698792831,146.6728069957171 145.6495563305216,147.86632291171554 146.3434921305743,149.07011353874987 146.6459769664798,149.255310829285 147.62460437678965,149.1318460065013 148.48757582047256,150.5722595932384 149.55516935896594,150.98380257724784 150.65834934875602,152.3213057498142 150.72062563855434,152.84601371901226 150.41814080259064,153.3089890861811 150.48041709238896,154.32752745997277 151.0586969256983,155.42836047156743 151.28111224621534,155.5312414513901 151.8327022411977,155.3974961572967 153.6565078694839,153.802827149957 154.19920125155477,153.73080924864917 155.57817623880692,153.91599803447752 156.53901042346843,153.63821472901327 157.23294622352114,152.96947402344085 157.52653444663156,151.62169090435054 157.9446752492222,151.1689963755489 158.7364737902535,150.77803129385575 160.1688284544507,150.65456832356722 162.535327464866,148.8540496058995 163.629610841861,147.7634341615194 164.3858229315956,146.539050026935 164.50147889828077,145.94228601807845 164.3591330931522,144.913374312433 164.53706534957746,143.66837719847535 164.75058405729942,143.21564718769514 165.3199672778719,142.670310628906 166.28080146253342,142.62915303381305 166.5832862984389,142.48510131952935 167.33949838823173,141.57962871799828 168.15798676776467,141.34296977421764 169.18999385496136,141.55904970132542 172.31270495516947,145.12944663607777 172.42836092185462,145.53072258780594 171.15614528843435,146.4670269707276 169.4124091755366,148.37047627975699 168.2113664447097,149.29646573686477 166.05838614195818,152.1361140542067 165.26658760092687,152.91803224816977 162.45525794947753,154.69790251623635 159.88413684419356,154.79049606915214 159.38592652621446,154.96539477191254 158.96778572362382,155.31519127332285 158.53185169538483,155.9736284763203 157.76674299279694,157.91805091052083 156.03190349269425,160.77803315743222 155.77390172088053,163.04127134993178 154.77748108492233,165.12957819879375 153.9234062540927,166.3023031124976 150.94304095907137,169.51179677235632 151.58359708217904,173.28693671820656 152.33980917197186,175.30303026448382 152.34870578476693,176.9796490075605 153.03374497196637,177.987664131746 154.67961834388552,179.52023938722414 155.9518339773058,181.71106184508972 155.60486607730854,182.0710516255349 153.86112996435259,185.0846303174185 152.5889143309323,185.82515474282263 151.61028692062246,186.0 151.18324950517854,185.9177199164551 148.75447420508135,184.59094436823943 148.22067743580556,184.5806592187946 146.13887003570562,185.0949154158734 143.10512506373925,184.11782641556056 141.6905636251904,183.8915518332069 139.95572412508773,184.2103931449019 138.46109317115042,185.0229197049921 137.72267430700595,185.25947684912535 136.02342125819996,185.1257707049008 134.012786760577,185.62973909928405 132.1533946810523,185.40346788454917 132.1533946810523,184.22067833183246 132.77615757851163,183.96354834590602 132.77615757851163,182.9658778386074 133.34554079908412,182.08133702908526 133.89713079395005,181.7727744695003 133.9772003093385,181.0939335389412 133.80816466576653,180.857366694152 133.79037144011818,180.47680148339714 134.30637498374563,179.90080818194838 134.3775478862808,179.62309595885017 134.0839596631704,178.78995473361283 134.09285627602367,177.8025192466812 133.82595789141487,177.09279406075802 134.42203095043078,176.12591408782464 134.68892933503957,175.9510518332172 135.58748722990276,175.8379055080659 135.93445512995822,175.49846577624703 136.72625367098954,175.33388852817734 138.46109317115042,174.5418567917368 140.16924283275148,174.13040929596173 144.95562053046888,172.56689360893506 146.0143174561672,171.88799114400172 147.4110856691259,170.44787998079846 150.24020854622358,169.90268971098703 151.18324950517854,169.46036337894475 154.0568554464262,166.35373810568126 154.8842404387542,165.1913009003838 155.86286784906406,163.06184601119458 156.00521365419263,161.18953476359457 156.28990526450798,160.50026863030507 156.15645607217448,160.27394141665718 153.9945791566861,159.6978335048625 152.74015674891416,158.53532008474576 150.6316595103126,157.12588330396102 150.15124241798185,158.22668596684525 150.5960730590159,157.12588330396102 150.57827983336756,156.09708497636166 151.0586969256983,155.47980097453546 150.4626238667406,154.26579815251898 150.42703741544392,153.2987007676129 150.80959176673787,152.7534183921598 150.67614257446257,152.238998371271 149.55516935896594,150.94264835391368 148.48757582047256,150.53110520304472 147.66019082808634,149.17300096411054 146.40576842031442,149.12155726443598 145.68514278181829,147.79430079753365 145.66734955616994,146.70367396348593 145.17803585104411,145.2323380570233 140.792005730269,141.9397608341751 139.04826961737126,140.14937712283427 136.56611464027083,138.06055619251856 135.52521094022086,136.74344502360327 135.55190077866428,136.55822489399725 135.92555851716315,136.32155423625954 137.41129285824718,135.73502022631146 145.64065971772652,133.73872116411076 146.19224971259246,133.34768891128624 146.60149390238803,132.59649114339118 146.4146650331095,125.22828387451591 146.29011245368747,123.59197526179923 146.210042938299,123.27294346279086 145.9787310049287,123.10828149635199 145.9164547151886,122.04826368655631 145.5161071382463,121.66747788455541 142.46456894063158,121.44106402707985 142.30442990985466,114.95717992162827 142.08201458927942,114.66899767029099 142.04642813804094,114.0 141.7261500764289,114.09263071000896" stroke="#ff2c00" stroke-linecap="round" stroke-linejoin="round" stroke-width="0.5"><title>2021-06-23 30.5km</title></polyline><polyline fill="none" points="14.0,246.9534516577187 14.043211728901952,246.37854670449087 15.074120118326391,246.35355062376766 15.120418399295886,246.22499907085876 15.246967033905094,246.18214844880276 15.228447721528937,244.42879905204973 16.58961718181672,243.88242180135057 17.376687958167167,243.62530015730226 17.447678655647906,243.55030599026577 17.466197968024062,243.13962081051068 17.16988896986004,239.97182694636285 18.963175719138235,239.72539132989186 19.0002143439051,239.59324398329773 18.91687743816874,239.12893855575385 18.6730398251093,238.51818899892532 19.679255798007944,238.02529565274017 19.99099755648058,237.91814401057127 20.45398036610277,237.55025421934988 20.72868349980854,237.43238580171965 21.330561152324663,237.3395194972727 21.89540018005937,237.31808877677759 22.691730612597894,237.37523733572743 24.000428687781096,237.35023485262354 24.568354267597897,237.43952935343623 25.145539503573673,237.65383522969933 25.17331847216701,237.53239539360948 25.3091267629934,237.51453655879232 25.358511596015887,236.84660961930786 25.42332918936154,236.77160098828972 28.580871950965957,237.03948822104212 32.78475586230343,237.08234998875196 35.19843957645935,237.48953417479788 37.318900844518794,237.91814401057127 37.374458781661815,237.80384856549063 37.77879710205889,235.7393230876878 37.8621340078098,235.72146334156423 41.396236121232505,236.40369919376826 43.103099412692245,236.56800532556372 43.248167359721265,236.3965554314782 43.48891842071316,234.97848985866221 43.4302739315026,234.7891719883337 43.46422600420192,234.75702356940383 51.50160757919366,236.1465228364068 52.495477343851235,236.36083659825454 55.04188279675145,236.77517283149427 55.43696146096045,233.49964010937038 55.51103871050873,233.2674479002817 56.79195781711314,233.43176869929448 57.075920607021544,233.4174799646753 59.93406781840895,234.1569143498018 59.62232605992176,234.0140296914069 59.74887469456007,233.5032122852208 59.7149226218462,231.42057213812222 63.514468212786596,231.45629599453605 65.3478801388992,231.40985497410657 65.78308397992805,231.3205451468566 65.39726497192169,227.8194209622634 65.40652462810976,226.6796940046588 65.47442877350841,226.36528005734363 70.07030479701643,224.38940978196115 70.12277618210646,224.29650898468753 70.12586273415945,224.07140218706263 70.23080550435407,223.83200131036938 71.10429973849386,222.61353273907298 71.46851288205653,222.1347094653138 72.04261156599387,221.57726518578784 76.96257555623015,214.88009484597933 77.21875937754521,214.62633486549748 77.6632228747767,214.41903661758624 81.31770051871717,213.56481194519074 83.54001800487458,213.3682301008048 84.45981051998388,213.33606205773685 86.0,213.04654834228495" stroke="#ff0300" stroke-linecap="round" stroke-linejoin="round" stroke-width="0.5"><title>2021-04-30 31.8km</title></polyline><polyline fill="none" points="114.0,247.06654586966033 114.0650112866715,247.03235862301517 114.20685409397993,247.10073308159554 114.23935973733023,247.401579049867 114.28368561461684,247.2955995268021 114.28073055612913,246.87851558354305 115.2352144469478,246.8511656362789 115.30613585059473,246.74518438075393 115.41842807305511,246.72467184115885 115.40956289760652,245.01866855604385 117.40422737532936,244.2596573434239 117.94500307818817,244.1639249841137 119.14475682329794,244.1160587023587 119.15953211573651,244.00323076892528 119.23340857788571,243.9177548100197 119.22454340242257,243.2612922108492 119.28068951364548,243.16213789283938 120.76117381489894,243.1176893106349 120.82914016005816,243.0287919701368 120.85278062794532,242.2663166757593 121.692017237845,242.2150284798845 121.73929817360477,238.30321841282785 121.81021957726625,238.21430835310457 122.15005130310601,238.23140645975582 122.21506258976297,238.1664336082431 122.6021752513916,238.13223732021288 122.51056843833067,238.0262286064135 122.38941104042169,237.5953510413965 125.84682946848625,237.72871849644798 128.06016827416897,237.92363921050128 128.22565154935,237.79027252815285 128.24338190026174,237.24654135164383 128.3202134208841,237.1063325161449 128.24633695874945,236.9866415844699 128.29361789450923,236.51129339469117 129.7356864354515,236.1624724644389 129.88343935973535,235.99148049118958 129.9336753539974,234.95867049201115 131.0861481633474,234.5345936261001 131.69784526985313,234.3601733632786 132.6434639852232,234.19601228961983 132.99216088651156,234.19259225872884 133.32608249537589,234.36359337712565 133.67477939666423,234.2438926855466 134.4696901292773,234.3430732888337 138.97615431972372,235.13992752136983 139.10026677610585,235.1946464326138 141.857336343106,235.63581440258713 143.86086599630653,236.01199957387507 150.14627539503272,237.1063325161449 150.75206238456303,237.24654135164383 153.44707572336483,237.66716435211856 153.54754771187436,237.51669819185918 153.94648060742475,234.37385341657864 154.05286271289515,234.3225531880089 155.37377385592845,234.49697364592794 155.8406730966526,232.7595687137 156.13026882824488,231.41883268237507 156.24551610917842,231.100742053437 156.41986455980805,230.72792232459324 156.86312333264505,230.05067958114523 157.48073055611167,229.4110489079212 157.97718038168387,229.08951873264596 158.6154730145645,228.8295559171056 163.34061153292714,227.77942250205524 166.82462548738113,226.26744641234836 167.91208701005962,225.8466807873665 167.9623230043071,225.77142133971938 167.97709829673113,225.50117011582188 168.08052534372837,225.29249363326016 169.20935768520576,223.72566816079416 169.83878514260869,223.09618058709748 174.42208085367747,216.85540480613417 174.73827211161552,216.50637981741238 175.00718243380834,216.348975204226 175.32632875024865,216.2531633393155 178.69214036526682,215.47297083410376 180.92616458033444,215.26423204617095 181.78904165810673,215.24027833176297 183.71278473219718,214.87070457239315 185.97635953211284,214.51823691943355 186.0,214.43953004494324 185.9054381284659,213.91595353156663 185.5153704083641,212.59842095012937" stroke="#ff0000" stroke-linecap="round" stroke-linejoin="round" stroke-width="0.5"><title>2021-04-09 31.9km</title></polyline></svg>