<?xml version="1.0" encoding="utf-8" ?>
<svg baseProfile="full" height="300mm" version="1.1" viewBox="0,0,200,300" width="200mm" xmlns="http://www.w3.org/2000/svg" xmlns:ev="http://www.w3.org/2001/xml-events" xmlns:xlink="http://www.w3.org/1999/xlink"><defs /><rect fill="#222222" height="300" width="200" x="0" y="0" /><text fill="#FFFFFF" style="font-size:12px; font-family:Arial; font-weight:bold;" x="10" y="20">Over 20km Riding </text><text fill="#FFFFFF" style="font-size:4px; font-family:Arial" x="10" y="280">ATHLETE</text><text fill="#FFFFFF" style="font-size:9px; font-family:Arial" x="10" y="290">Joe</text><text fill="#FFFFFF" style="font-size:4px; font-family:Arial" x="120" y="280">STATISTICS</text><text fill="#FFFFFF" style="font-size:3px; font-family:Arial" x="120" y="285">Number: 7</text><text fill="#FFFFFF" style="font-size:3px; font-family:Arial" x="120" y="290">Weekly: 1.0</text><text fill="#FFFFFF" style="font-size:3px; font-family:Arial" x="141" y="285">Total: 198.2 km</text><text fill="#FFFFFF" style="font-size:3px; font-family:Arial" x="141" y="290">Avg: 28.3 km</text><text fill="#FFFFFF" style="font-size:3px; font-family:Arial" x="167" y="285">Min: 23.3 km</text><text fill="#FFFFFF" style="font-size:3px; font-family:Arial" x="167" y="290">Max: 31.9 km</text><polyline fill="none" points="66.7135929686483,75.19896533719293 65.7234429459204,71.93882978225156 61.181845734186936,72.01464818694512 60.33080769813387,68.1288753008339 60.33080769813387,67.23796789008338 60.59266555542126,66.95363393981097 60.44537051068619,66.00584782219084 60.87088952874183,59.11515211277583 61.083649037755094,58.69809222978074 60.14259736324311,58.394774775297265 59.978936202445766,58.15780732490384 59.99530231853714,57.8544881064081 58.53871798759792,57.15305862061359 58.17048037581844,56.82129958653968 57.50765267465613,56.660159056780685 54.283527807245264,55.14352861061343 56.034702227596426,55.958720553142484 56.06743445977918,56.05350984960387 55.57645097744535,56.243088152426935 58.60418245190522,57.598561745500774 58.53871798759792,58.73600684198027 54.095317472325405,58.773921438689285 53.96438854371081,60.12935810691124 52.40960751628154,60.12935810691124 52.55690256098751,55.90184692881303 52.712380663782824,54.92551094843657 52.606000909232534,55.40894072611263 49.49643885434489,55.39946173506178 49.635550841048826,53.02968361964304 49.54553720258991,52.86853651245474 48.17078345202026,52.20498665475316 48.06440369755728,52.233424603022286 48.3098954387242,52.328217701011454 47.802545840269886,52.24290391719114 30.36444915898028,44.31785958364344 30.315350810764357,44.232538441123324 30.446279739349848,44.24201857193111 30.519927261717385,44.488501633481064 30.429913623287575,43.881772920482035 30.249886346427957,44.061895920902316 29.85709956055507,44.11877679580357 29.284285497822566,45.88206663719029 28.523261100170203,47.52208573916141 23.384300651639933,47.53156553419831 23.228822548873723,47.711681455606595 23.547961812408175,47.825438699706865 23.71162297320552,47.74012077968655 23.26155478102737,47.74012077968655 23.187907258659834,47.53156553419831 22.983330807706807,47.51260594320047 19.194574935594574,47.52208573916141 19.08001212310046,49.787729227937234 18.891801788151497,50.08159525459632 18.891801788151497,52.03435878232267 18.77723897562828,52.1291520834784 17.762539778777864,52.1291520834784 17.574329443858005,52.25238323036319 17.51704803755274,54.716971836249286 15.111228974099504,54.75488807330112 15.086679800006095,54.59374395899067 15.323988483083667,54.58426488471741 15.152144264313392,54.470515918248566 15.119412032159744,54.18614289267862 14.972116987453774,54.75488807330112 13.212759509013267,54.735929956710606 13.032732232182752,54.631660246326646 13.0,52.802181739971275 13.130928928643698,52.223945287885726 18.998181542672683,52.176548697796534 19.14547658734955,47.76856009507901 27.230337929999223,47.74012077968655 28.727837551152334,47.872837510250974 29.930747082893504,44.84874493118696 30.110774359782226,44.72550396028237 29.56250947114313,44.83926486232667 30.168055766029283,44.535902147232264 47.925291710853344,52.735826920121326 48.03985452343477,52.565200022821955 47.95802394300699,52.77374396581581 48.29352932263282,52.25238323036319 49.59463555086404,52.90645350397972 49.480072738282615,55.92080480743607 52.64691619944642,55.98715735220321 52.425973632372916,60.15779362944886 60.43718745265505,60.20518614762841 60.10168207305833,66.50817566851765 58.522351871506544,66.52713138313993 58.41597211698536,66.8209444652748 58.661463858152274,66.99154518342402 64.57781482045539,67.02945641159022 64.41415365965804,67.20005674700224 64.43051977572031,67.46543442393158 67.0,76.11822707952524" stroke="#ffff00" stroke-linecap="round" stroke-linejoin="round" stroke-width="0.5"><title>2023-05-01 23.3km</title></polyline><polyline fill="none" points="138.7026097511989,33.32556389668753 139.0958931822679,33.07279049911449 141.00768763909582,33.414034464578435 140.97491401981097,34.43776074806374 141.26987659320002,34.57678465577919 141.2589520533802,35.44884017169534 141.5866882460541,35.752162397380744 145.80356059072074,35.853269641702354 145.7707869714941,37.382506698217185 145.69431519322097,36.06812226322654 146.1640704026213,35.76480080741749 151.75743475626223,35.802716029807925 152.23811450536596,35.79007762361289 152.28181266435422,35.651055070906295 152.75156787375454,35.79007762361289 157.5692899049027,35.87854643992614 157.49281812668778,42.76628272150265 157.90795063728,42.5261662158664 161.28363342100056,42.7789204194778 161.32733158004703,44.0805964425017 161.07606716576265,43.916307986139145 161.27270888123894,44.042683741034125 161.52397329558153,50.65195695612783 161.9718794254586,51.04370018764166 162.0265021242085,51.574447116057854 165.5005057657836,52.92657787854114 168.5812259761733,53.38149707754201 169.9686425247928,53.36886045553547 170.0232652236009,52.9013045409738 170.7442848472856,52.598024090264516 170.56949221127434,50.71514143166132 172.65607930411352,50.57613554317504 172.79809832083993,49.09760876306973 174.01072223350639,49.07233464840101 174.3384584261221,48.35202022411249 174.55694922117982,48.33938309178484 182.5427877807524,48.60476260189898 184.23609144246439,48.9459639981651 185.74367792840349,49.50199390004855 186.9344527615467,50.209664729758515 187.0,50.39921873341518 185.91847056447295,53.280404065815674 181.67974914022489,53.280404065815674 178.56625531055033,52.77493777628115 178.38053813477745,52.484293730783975 178.58810439007357,50.37394488292921 179.70240744494367,46.11522782062093 182.0074853328406,41.540419918936095 182.04025895206723,38.583134198263 181.37386202713242,37.74901526817848 182.22597612795653,38.633686681088875 184.509204936272,38.86117259970342 182.2805988267064,38.696877255730215 181.9419380943291,38.418838487348694 181.53773012349848,38.418838487348694 181.47218288492877,41.72998712061235 179.23265223548515,46.03940364521986 178.06372648192337,51.11952131592989 177.85616022662725,54.10178241064568 178.11834918067325,55.769795609383436 178.82844426465454,57.14715330474428 179.63686020643217,58.09486764355097 181.2209184706444,59.29529545397236 182.1385798098636,60.68525004397816 185.37224357679952,64.04634886012354 186.6613392676809,65.81531181077298 186.70503742672736,66.18173670994292 185.72182884893846,67.38208658989606 185.21930002025329,68.89830148572219 184.80416750966106,69.08782705016347 183.98482702818,68.98674678502721 183.24195832497207,69.11309710366913 182.26967428688658,70.32605364307528 181.8217681570095,71.38738092791027 181.76714545825962,72.54977662829333 181.85454177635256,73.68689236350474 182.37891968444455,75.01351427172631 182.20412704837508,75.40518089636316 181.7562209185562,75.55679345277895 180.3797289096401,74.45759823900153 178.89399150322424,74.39442580563627 178.3368399757892,74.15437026668951 174.05442039249465,68.99938182259939 173.63928788190242,68.14019634445867 172.81994740036316,65.20881305753574 172.36111673078267,64.31169490412867 172.66700384387514,64.12216207323945 174.18551486957585,65.38570883226203 174.89560995349893,64.80447891489166 174.60064738010988,64.94346892448084 174.07626947201788,64.80447891489166 172.50313574756728,64.0716199362796 171.88043698162073,64.05898439882003 171.44345539150527,64.27378836101707 171.37790815299377,64.12216207323945 171.3997572324588,64.84238529652794 172.85272101964802,69.51741726228647 171.83673882257426,69.95964093334624 171.96783329965547,69.44160733248282 171.74934250459773,70.41449792880303 171.17034189763945,70.99570167301135 170.4274731944315,71.36211133571487 169.50981185521232,71.28630252838775 169.1056038843235,71.6779808696956 168.6467732146848,72.56241130458511 168.41735787986545,73.85114155637712 168.3845842605806,76.03689866443892 167.2702812057687,77.72988649005129 166.65850697958376,77.52773989929119 166.8223750758916,77.28769039680628 167.09548856969923,77.72988649005129 166.97531863243785,78.08364223488024 163.88367388234474,80.74941215662693 162.72567266848637,81.12842694644496 161.34918065957027,81.2547649535336 160.34412300219992,81.79801692464389 160.0054622698808,82.22756331825076 159.63402791827684,83.75623112069297 158.72729111876106,84.70374307275051 157.40542180865305,85.09537924218603 155.88691078301053,84.86797774526349 155.3406837952789,84.94377829032601 153.5709083552938,86.19448062823358 152.9263605097658,86.88930983723549 152.24903904512757,86.92720950088551 151.39692494436167,85.55018099131121 151.3423022456118,84.36263959987264 151.8011329152505,83.55409430524742 151.604491199716,82.97294913460064 150.31539550883463,81.43163794833526 148.8515071818838,80.78731368749868 147.92292130284477,79.20807346870424 146.54642929398688,79.2333414697423 146.2951648796443,79.08173338658526 145.46489985840162,77.56564241004526 145.39935261989012,76.07480162867432 144.76572931418195,74.3312533402277 139.83876188553404,70.65456067354535 139.69674286874942,70.36395834461291 139.95893182279542,69.80802156579739 139.39085575559875,70.25024420533737 137.5773821566254,68.3549932695023 134.3764920089161,65.66368739926838 133.0,63.9073578495736 133.09832085773814,63.679917679633945 134.74792636052007,62.93441643338883 138.32025085983332,61.92356015940459 137.33704228204442,57.981142303659 137.10762694716686,56.17415908111434 136.95468339067884,46.330062733650266 137.16224964597495,45.74874387833552 137.07485332794022,39.72056009644439" stroke="#ffe600" stroke-linecap="round" stroke-linejoin="round" stroke-width="0.5"><title>2022-10-12 24.1km</title></polyline><polyline fill="none" points="13.0,133.2154126135265 13.044698286554194,133.15077302872487 13.151974174325005,133.18180004991154 13.181028060585959,133.432600416656 13.214551775512518,133.40674482293616 13.243605661773472,133.02925016509653 13.974422647137544,133.00856536460014 13.996771790407365,132.92582599456364 14.09957784951257,132.88962743564298 14.077228706228198,132.3828422074639 14.121926992782392,132.31561483782752 15.21703501365846,132.07514625501608 15.612614849756937,132.10876027947052 15.722125651838724,132.08548903649535 15.793642910357448,131.92776116237292 16.175813260488212,131.9794753271235 16.318847777496558,131.8165753524845 16.44847280853719,131.75968940153325 17.706729575365898,131.97688962137363 17.764837347902358,131.93551829377793 17.776011919529992,131.59678802069357 17.838589520732057,131.5269728241292 18.18947107027634,131.56317332031722 18.730320337723242,131.55024457758736 18.940402284570155,131.63557415829018 19.85001241619466,131.66401728829987 20.031040476780618,131.5942022760828 20.34839831139834,131.68728891650244 27.667742736521177,131.92776116237292 27.752669481007615,131.81140390764995 27.78842811024515,131.2580532410375 27.839831139805028,131.2037518266825 30.642413707464584,131.36406995430661 30.747454680895316,131.24512434335702 30.805562453431776,130.13838636554647 30.96647628507344,129.12986827099485 31.022349143284373,129.02125624668042 31.080456915820832,128.99539617257506 31.120685373723973,128.88161153439796 31.23913583313697,128.1083797240044 31.22796126148023,128.0049355597439 31.572138068033382,126.38856587701412 31.909610131609952,124.48499727745366 31.96101316116983,124.25221416977001 32.02806059102295,124.18755181738379 38.238887509316555,125.2660983625774 40.50062080954376,125.70319413427205 41.90191209336626,125.91268707885683 41.97566426619596,125.30489414894691 42.015892724113655,125.24023447212858 42.94785199900798,125.3229988290077 43.00819468586997,125.26092558659002 43.07747703004861,124.71519181149233 43.117705487966305,124.64535773474381 43.920039731805446,124.7255375843306 44.05636950585176,124.67380867803695 44.17928979388671,124.10995677756 44.68885026073258,122.24501811191476 44.930221008195076,121.1766906709563 45.09113483983674,120.82746978894829 45.424137074747705,120.3152704864442 45.68785696548002,120.01001549037755 45.942637198910234,119.7875392014248 46.28457909113786,119.57282186724478 46.794139557983726,119.3684506720383 50.33200893965841,118.58199429227898 53.78271666253568,117.11767186771613 53.90116712191957,116.72699915684643 54.25651850011491,116.22247915545631 54.851005711447215,115.43075065544326 55.19965234665142,115.09956278953359 58.78892475788598,110.22697984353545 59.06158430593496,109.98889023727315 59.46386888502457,109.85690482001337 59.36106282591936,109.41436047407842 61.24733051900694,109.05980183723841 63.079960268194554,107.60787139498643 63.187236155950814,107.37752185805402 63.40178793146333,107.43446238747674 64.03426868637325,107.15234669521669 65.5987087161775,106.56739958334583 65.69034020364052,106.73046141629675 66.95977154209686,106.68128414840248 67.0,106.73046141629675" stroke="#ff0f00" stroke-linecap="round" stroke-linejoin="round" stroke-width="0.5"><title>2021-09-30 31.4km</title></polyline><polyline fill="none" points="178.36079440970207,129.94102860079147 178.31445384334074,127.41365182374284 180.53218094888143,127.31408676248248 180.77712394262198,127.19154496820556 180.88966531812912,126.97709634917555 180.47260022067348,116.75944479522877 180.30709819786716,115.54150642208697 179.83045237220358,114.11672335476032 177.9834497977281,110.51634507347626 177.16255976463435,109.12210984839476 176.65943361533573,107.95001303029858 178.07613093050895,107.22223132385261 179.68481059212354,106.11139306484256 186.53659433615394,98.42700829277601 186.95365943360957,97.86003360781615 186.54983449797146,97.50758773427515 186.77491724898573,97.67614900991612 187.0,97.51524961861287 186.43729312246433,98.381037531326 179.36042662741966,106.27993509567023 177.2221404928423,107.59761434472603 176.7322545053321,107.7431705232666 176.23574843694223,107.63591862950852 176.01728576683672,108.01896040649444 175.4942993747536,108.179837372365 174.49466715706512,108.92293128241727 172.1643986759882,110.19460077198892 171.60169179845252,110.46272111859435 171.3170283192594,110.47038168591098 171.21110702463193,110.69253779949213 169.4567855829373,111.73436463197868 166.37182787788333,113.20515447206708 165.82898124310304,113.06726914355386 163.00882677457412,114.38482975205261 161.962853990437,115.14318268471106 160.65207796986215,116.53730655890831 159.91062890770263,117.06584128867689 159.4406031629478,117.60969199817191 158.59985288712778,118.18417792386754 158.16954762779642,118.19183770665404 156.9713129827287,118.85057611428783 155.22361162194284,120.27526973236672 148.17984553144197,122.91011603963125 143.39352703199256,123.27010242789402 142.1688120632607,123.58413170377753 140.3747701360844,123.83688602481561 138.17028319236124,124.67939431080595 133.0,126.28013412664586 136.17101875689696,135.55456563960615 137.08458992280066,135.50095948483067 137.62743655758095,135.25590229227237 137.73335785215022,135.33248275046208 138.4284663479193,138.5105032259671 139.4810592129652,141.87216717153206 138.7329900698678,142.43881103905005 138.79257079807576,142.49241226572485 139.6995218830416,141.9487409157373 139.5472600220528,141.15237017827894 139.6465612357424,140.96859112242237 140.99705774182803,140.48616897148895 143.93637366680196,139.67446759936138 143.63847002576222,137.73706960218988 143.75101140126935,137.61454473638878 151.78778962854994,137.5226509564891 152.05259286504588,137.10146970003552 152.2710555351223,134.54370030859718 152.26443545421353,131.98584420634143 152.3703567488119,131.80970122336294 156.2100036778138,131.5952657324451 160.94336152999313,131.50336462120322 168.58955498345313,131.5569736163743 175.3420375137939,131.46507245847897 175.62008091213647,131.33487895980943 175.7326222876145,131.13575905666949 175.75248253034079,129.489170484223 175.98418536226382,129.30536301829852 175.9709452004463,129.12155510450248 176.5468922397995,129.1368724477652 177.288341301959,128.79223147222365 177.53990437663742,128.2790964356027" stroke="#ffc600" stroke-linecap="round" stroke-linejoin="round" stroke-width="0.5"><title>2021-08-04 25.2km</title></polyline><polyline fill="none" points="34.28837456891779,153.4091180552714 34.20163259390392,154.6441780760506 31.66609793988755,154.6904924365881 31.465924151416402,154.82171630491212 31.379182176402537,155.13819646735647 31.39252709565335,158.51133002294227 23.312178500927985,158.22573870038468 23.178729308623588,158.36467515343975 23.258798824012047,159.30634886709595 26.288095489580883,163.6826630386131 28.26314353584894,168.76103299654642 28.65681865316583,169.65627279486216 29.11721836667857,170.3508481400204 29.87120630327263,171.2306344747194 32.266619305330096,173.2448438302381 33.28750562653295,174.24806997760606 36.410216726741055,176.50913887468778 36.71047740941867,177.50460524678783 36.73716724786209,178.39974218378484 37.25761909791618,179.30258515406604 37.48448272483074,179.4414831219692 38.218453282577684,179.3488845048778 38.86568186531076,180.42919469493063 39.666377019224456,180.73785193293588 40.493762011581566,181.7409793123661 40.5404692288721,182.13451028926647 40.31360560192843,182.48174181464128 40.360312819248065,183.24564559498685 40.79402269425918,184.0712703536774 40.96083418466151,184.14843108854984 41.37452668088372,184.04812211797253 42.74238090211293,182.85212036246958 43.14940093862242,182.7981069364905 44.18363217910519,182.93699852585996 44.90425781760132,182.7286610467636 45.42470966765541,182.22710551758064 45.644900834944565,181.21626817826473 45.9585064369021,180.87674728166166 46.55235534266103,180.5835234703991 47.62662134083803,180.49092624268087 49.40149559863494,179.14053720442462 50.22220813136664,178.32257562114683 50.78936719868216,177.4042875202067 50.876109173725126,176.9567145135661 50.769349819864146,176.18503073432657 50.90279901216854,175.25128289886197 51.06293804294546,174.91173539077136 51.48997545838938,174.50273297168314 52.21060109688551,174.4718647753616 52.437464723800076,174.363825989647 53.004623791144695,173.6847215384987 53.61849007580895,173.50722733066505 54.39249539122102,173.66928727599588 56.73452871636255,176.34708497706015 56.82127069137641,176.64804194085445 55.86710896631121,177.35027022805298 54.55930688162334,178.77785720981774 53.65852483350318,179.47234930264676 52.043789606454084,181.60208554066048 51.44994070066605,182.18852418613096 49.34144346209359,183.52342688717908 47.41310263311607,183.59287205187138 47.039444894646294,183.72404607893986 46.72583929268876,183.98639345499396 46.39888877150952,184.4802213572475 45.8250572445977,185.93853818289062 44.52392761950614,188.08352486808144 44.330426290631294,189.780953512447 43.58311081366264,191.3471836490935 42.94255469055497,192.22672733437503 40.70728071927442,194.6338475792727 41.187697811605176,197.4652025386531 41.754856878949795,198.9772726983647 41.7615293385461,200.2347367556722 42.27530872897478,200.9907480988113 43.509713757870486,202.14017954042356 44.46387548293569,203.78329638382274 44.2036495579523,204.05328871915117 42.89584747326444,206.3134727380675 41.941685748199234,206.8688660571206 41.20771519042319,207.0 40.887437128898455,206.93828993734496 39.06585565378191,205.94320827617776 38.665508076839615,205.9354944141014 37.10415252673556,206.3211865619087 34.82884379778989,205.58836981167406 33.767922718892805,205.41866387490882 32.46679309380124,205.65779485867824 31.345819878333714,206.26718977874407 30.792005730239907,206.44460763684765 29.517565943620866,206.34432802867377 28.00959007043275,206.72230432446668 26.615046010760125,206.55260091341188 26.615046010760125,205.66550874887616 27.082118183840066,205.47266125943133 27.082118183840066,204.72440837896283 27.509155599283986,204.06100277181395 27.92284809544799,203.82958085212886 27.982900231989333,203.3204501542059 27.85612349928124,203.14302502061037 27.84277858005953,202.85760111254785 28.229781237780116,202.42560613646492 28.283160914696055,202.21732196913945 28.06296974734869,201.59246605021326 28.069642206974095,200.8518894350127 27.86946841853205,200.31959554557397 28.31652321279398,199.59443556586484 28.516697001236025,199.46328887491836 29.190615422441624,199.37842913105123 29.450841347454116,199.1238493321871 30.044690253242152,199.00041639613482 31.345819878333714,198.4063925938026 32.62693212454906,198.09780697197857 36.216715397837106,196.92517020670493 37.01073809212539,196.41599335800856 38.058314251800766,195.33590998560248 40.18015640965314,194.92701728324755 40.887437128898455,194.59527253421402 43.042641584790545,192.26530357926094 43.6631803290511,191.3934756752933 44.397150886798045,189.7963845084014 44.503910240659025,188.39215107270138 44.71742894835188,187.8752014727288 44.61734205411631,187.70545606249652 42.99593436750001,187.2733751286505 42.055117561656516,186.40149006355932 40.47374463273445,185.34441247797076 40.113431813486386,186.17001447513758 40.44705479426193,185.34441247797076 40.43370987501112,184.57281373227306 40.79402269425918,184.10985073090706 40.34696790002636,183.19934861439106 40.320278061553836,182.4740255757133 40.60719382503885,182.06506379412167 40.507106930803275,181.67924877845508 39.666377019224456,180.7069862654389 38.86568186531076,180.39832890228718 38.245143121050205,179.37975072308473 37.30432631520671,179.34116794832516 36.76385708633461,178.3457255981557 36.750512167142006,177.5277554726199 36.38352688823943,176.4242535427693 33.0940042976581,173.9548206256295 31.786202212999342,172.61203284213116 29.924585980159463,171.04541714439256 29.143908205151092,170.05758376770973 29.163925583969103,169.91866867049976 29.444168887857813,169.74116567719466 30.558469643699937,169.30126516973542 36.73049478829489,167.80404087308852 37.144187284458894,167.5107666834665 37.45112042679102,166.94736835754884 37.310998774832115,161.42121290588693 37.21758434025105,160.1939814463476 37.1575322036806,159.9547075970986 36.984048253681976,159.83121112226945 36.93734103636234,159.0361977649227 36.63708035365562,158.75060841342201 34.34842670543003,158.58079802030989 34.228322432376444,153.71788494122302 34.061510941945016,153.50174825271824 34.0348211035016,153.0 33.79461255730712,153.0694730325049" stroke="#ff2800" stroke-linecap="round" stroke-linejoin="round" stroke-width="0.5"><title>2021-06-23 30.5km</title></polyline><polyline fill="none" points="133.0,192.7150887432872 133.03240879667283,192.28391002836543 133.80559008874116,192.26516296782393 133.840313799461,192.16874930314043 133.9352252754179,192.13661133659843 133.9213357911358,190.82159928903457 134.94221288635163,190.41181635100838 135.53251596860355,190.2189751179758 135.58575899172865,190.16272949269842 135.59964847601077,189.85471560788028 135.37741672739503,187.4788702097685 136.72238178933912,187.29404349741526 136.7501607579179,187.19493298746966 136.68765807861928,186.84670391681357 136.50477986881742,186.38864174919036 137.25944184849504,186.0189717395515 137.49324816734588,185.93860800792572 137.84048527457344,185.66269066450877 138.0465126248455,185.57428935128883 138.49792086423258,185.5046396229518 138.9215501350409,185.48856658257864 139.51879795943387,185.53142800179194 140.50032151582127,185.51267613946584 140.92626570069115,185.57964701507444 141.35915462767298,185.74037642227086 141.3799888541107,185.6492965452053 141.48184507223777,185.6359024190915 141.5188836969901,185.13495721447907 141.5674968920066,185.07870074121456 143.93565396321355,185.27961616577886 147.08856689672393,185.31176249156124 148.89882968233724,185.6171506310966 150.48917563338182,185.93860800792572 150.53084408624272,185.85288642411615 150.83409782653325,184.30449231576313 150.89660050584644,184.29109750616954 153.5471770909062,184.80277439532256 154.82732455950463,184.92600399417097 154.9361255197873,184.79741657360682 155.1166888155276,183.7338673939921 155.07270544861967,183.59187899124845 155.0981695031369,183.56776767704832 161.12620568438433,184.60989212730237 161.87160800787387,184.77062744868817 163.78141209755267,185.08137962361798 164.0777210957167,182.62473008202505 164.13327903287427,182.45058592520945 165.09396836282394,182.57382652446904 165.3069404552516,182.56310997350374 167.4505508637958,183.11768576234863 167.2167445449304,183.01052226855063 167.31165602090186,182.62740921391378 167.28619196638465,181.06542910358985 170.13585115958995,181.0922219958975 171.51091010415985,181.0573912305772 171.83731298493512,180.9904088601379 171.54794872894126,178.36456572169482 171.55489347106777,177.50977050348956 171.60582158011675,177.273960043005 175.05272859774414,175.7920573364663 175.09208213657257,175.72238173851292 175.09439705060504,175.55355164029424 175.17310412824736,175.3740009827743 175.82822480385948,174.46014955430292 176.10138466153876,174.1010320989808 176.53195867448812,173.68294888933997 180.22193166715442,168.66007113448177 180.4140695331589,168.46975114911947 180.74741715607524,168.31427746318695 183.48827538902697,167.67360895889033 185.1550135036523,167.5261725756027 185.84485788998427,167.502046543299 187.0,167.28491125671098" stroke="#ff0300" stroke-linecap="round" stroke-linejoin="round" stroke-width="0.5"><title>2021-04-30 31.8km</title></polyline><polyline fill="none" points="13.0,252.79990940224525 13.048758465010906,252.7742689672632 13.15514057049586,252.82554981119756 13.179519803001313,253.05118428740207 13.212764210969908,252.9716996451025 13.210547917100484,252.6588866876573 13.926410835221759,252.63837422720826 13.97960188795696,252.55888828556454 14.063821054805885,252.54350388086823 14.057172173212166,251.2640014170338 15.55317053150793,250.694743007567 15.958752308652038,250.62294373808618 16.85856761748437,250.58704402676995 16.869649086816935,250.50242307669578 16.92505643342156,250.43831610751477 16.91840755182784,249.9459691581378 16.960517135245027,249.87160341963136 18.070880361177842,249.83826698297707 18.12185512004362,249.77159397760443 18.139585470969905,249.1997375068222 18.769012928387383,249.16127135991337 18.80447363021085,246.2274138096218 18.857664682960603,246.16073126482843 19.112538477333146,246.17355484481777 19.1612969423295,246.12482520618323 19.451631438540062,246.09917799016148 19.38292632876255,246.0196714548092 19.292058280319907,245.69651328104737 21.8851221013756,245.7965388723369 23.545126205630368,245.94272940787778 23.669238662012503,245.84270439611646 23.68253642519994,245.4349060137356 23.74016006567399,245.32974938710868 23.684752719069365,245.23998118835152 23.720213420892833,244.88347004601928 24.8017648265959,244.62185434832827 24.91257951980515,244.493610368394 24.950256515512592,243.71900286900927 25.814611122521455,243.4009452195769 26.273383952400764,243.27013002245985 26.98259798892832,243.1470092172167 27.24412066488003,243.14444419404754 27.494561871542828,243.27269503284515 27.75608454750909,243.18291951415995 28.352267596972524,243.25730496662618 31.732115739796427,243.85494564102737 31.82520008207939,243.89598482446308 33.89300225734769,244.22686080194217 35.39564949723717,244.50899968040721 40.109706546281814,245.32974938710868 40.564046788436826,245.4349060137356 42.58530679253454,245.75037326408892 42.66066078392032,245.6375236438962 42.959860455579474,243.2803900624367 43.03964703468955,243.24191489100667 44.030330391949974,243.37273023444686 44.38050482250401,242.069676535275 44.59770162119821,241.0641245117804 44.68413708188746,240.82555654007774 44.81489841986331,240.54594174344493 45.14734249949106,240.03800968585892 45.610547917094664,239.55828668094182 45.982885286270175,239.31713904948447 46.46160476093064,239.12216693783012 50.005458649713546,238.33456687654143 52.618469115535845,237.2005848092631 53.434065257548355,236.88501059052578 53.471742253241246,236.82856600478954 53.48282372255926,236.6258775868664 53.560394007799914,236.46937022494603 54.407018263911596,235.2942511205947 54.87908885696379,234.8221354403231 58.31656064026174,230.14155360460063 58.55370408372255,229.8797848630602 58.755386825374444,229.7617314031686 58.994746562690125,229.68987250448663 61.51910527396831,229.10472812557782 63.194623435265385,228.94817403463094 63.841781243580044,228.93020874882313 65.28458854915516,228.65302842929486 66.98226964908827,228.38867768957607 67.0,228.32964753370652 66.92907859635307,227.93696514867588 66.63652780628763,226.94881571259975" stroke="#ff0000" stroke-linecap="round" stroke-linejoin="round" stroke-width="0.5"><title>2021-04-09 31.9km</title></polyline></svg>