<?xml version="1.0" encoding="utf-8" ?>
<svg baseProfile="full" height="300mm" version="1.1" viewBox="0,0,200,300" width="200mm" xmlns="http://www.w3.org/2000/svg" xmlns:ev="http://www.w3.org/2001/xml-events" xmlns:xlink="http://www.w3.org/1999/xlink"><defs /><rect fill="#222222" height="300" width="200" x="0" y="0" /><text fill="#FFFFFF" style="font-size:12px; font-family:Arial; font-weight:bold;" x="10" y="20">Over 20km Ridings </text><text fill="#FFFFFF" style="font-size:4px; font-family:Arial" x="10" y="280">ATHLETE</text><text fill="#FFFFFF" style="font-size:9px; font-family:Arial" x="10" y="290">Joe</text><text fill="#FFFFFF" style="font-size:4px; font-family:Arial" x="120" y="280">STATISTICS</text><text fill="#FFFFFF" style="font-size:3px; font-family:Arial" x="120" y="285">Number: 1</text><text fill="#FFFFFF" style="font-size:3px; font-family:Arial" x="120" y="290">Weekly: 1.0</text><text fill="#FFFFFF" style="font-size:3px; font-family:Arial" x="141" y="285">Total: 24.1 km</text><text fill="#FFFFFF" style="font-size:3px; font-family:Arial" x="141" y="290">Avg: 24.1 km</text><text fill="#FFFFFF" style="font-size:3px; font-family:Arial" x="167" y="285">Min: 24.1 km</text><text fill="#FFFFFF" style="font-size:3px; font-family:Arial" x="167" y="290">Max: 24.1 km</text><polyline fill="none" points="36.10782925353851,69.97669169006986 37.287679546745494,69.21837149735074 43.023062917171046,70.24210339374258 42.9247420594329,73.31328224419849 43.809629779541865,73.73035396734485 43.776856160140596,76.34652051510056 44.76006473810412,77.2564871921495 57.41068177216221,77.55980892511434 57.31236091430765,82.14752009464428 57.08294557966292,78.20436678969418 58.49221120774746,77.29440242226701 75.27230426867027,77.40814808942378 76.71434351603966,77.37023287083139 76.84543799306266,76.95316521273344 78.25470362126362,77.37023287083139 92.70786971470807,77.63563931977842 92.47845437994692,98.29884816450067 93.72385191184003,97.57849864760647 103.85090026294347,98.33676125845523 103.98199473996647,102.24178932749783 103.22820149711333,101.74892395842471 103.81812664365862,102.12805122311693 104.57191988662817,121.95587086840533 105.91563827637583,123.13110056292498 106.07950637256727,124.72334134817356 116.5015172973508,128.7797336356307 125.7436779284617,130.14449123261147 129.90592757437844,130.10658136659185 130.0697956708027,128.70391362294322 132.23285454174038,127.79407227080083 131.7084766336484,122.14542429501307 137.96823791228235,121.72840662952513 138.39429496251978,117.29282628922374 142.03216670046095,117.21700394520303 143.01537527819164,115.05606067235931 143.67084766342305,115.0181492753618 167.6283633421408,115.81428780569695 172.70827432733495,116.83789199450985 177.23103378515225,118.50598170014564 180.8033582845237,120.6289941892901 181.0,121.19765620023827 177.75541169336066,129.84121219743975 165.03924742061645,129.84121219743975 155.698765931651,128.3248133288289 155.14161440427415,127.45288119235192 155.7643131701043,121.12183464880218 159.1072223347146,108.34568346187007 166.02245599857997,94.62125975679373 166.1207768562017,85.74940259481082 164.12158608145546,83.24704580454272 166.67792838369496,85.90106004328118 173.5276148088742,86.58351779912482 166.8417964800028,86.0906317672052 165.82581428298727,85.2565154620388 164.61319037037902,85.2565154620388 164.4165486547863,95.18996136184433 157.69795670639724,108.11821093567414 154.1911794458283,123.35856394778239 153.56848067988176,132.30534723194432 154.35504754201975,137.30938682815759 156.48533279402182,141.44145991423284 158.91058061923832,144.2846029306529 163.66275541181676,147.8858863619389 166.41573942953255,152.0557501319272 176.11673073039856,162.13904658035608 179.98401780298445,167.4459354323335 180.11511228012387,168.54521012984333 177.16548654669896,172.1462597696809 175.65790006075986,176.69490445716656 174.41250252898317,177.26348115049768 171.9544810843654,176.96024035508162 169.7258749747416,177.33929131101468 166.80902286060154,180.97816092925495 165.4653044709703,184.16214278372354 165.30143637477886,187.6493298849091 165.56362532894127,191.06067709051422 167.13675905333366,195.04054281517165 166.61238114500884,196.21554268911132 165.26866275561042,196.6703803583514 161.1391867287457,193.3727947170264 156.68197450961452,193.1832774169161 155.01051992725115,192.4631108000758 142.16326117748395,176.99814546780544 140.91786364559084,174.42058903339785 138.4598422010895,165.62643917259993 137.0833501922898,162.93508471240057 138.00101153145079,162.36648621971835 142.55654460866936,166.1571264967788 144.6868298604386,164.41343674468226 143.80194214032963,164.83040677345707 142.22880841593724,164.41343674468226 137.50940724264365,162.21485980882426 135.641310944804,162.17695319646737 134.3303661744576,162.82136508307303 134.1337244588649,162.36648621971835 134.19927169731818,164.52715588960564 138.55816305894405,178.5522517868667 135.51021646766458,179.8789228000678 135.90349989885,178.324821997463 135.248027513735,181.24349378643092 133.51102569291834,182.98710501904134 131.28241958329454,184.0863340071519 128.52943556546234,183.8589075851778 127.31681165285408,185.03394260909408 125.94031964393798,187.68723391374806 125.25207363953814,191.55342466913862 125.15375278168358,198.11069599332404 121.81084361730609,203.1896594701684 119.97552093875129,202.58321969787357 120.46712522755843,201.86307119042613 121.28646570909768,203.1896594701684 120.92595589719713,204.25092670464073 111.6510216469178,212.24823646989535 108.17701800528448,213.38528083934216 104.04754197853617,213.7642948606226 101.03236900665797,215.39405077393167 100.01638680964243,216.68268995475955 98.90208375477232,221.26869336207164 96.18187335622497,224.11122921825154 92.21626542578451,225.28613772656536 87.66073234891519,224.60393323580502 86.02205138583668,224.83133487097803 80.71272506576497,228.58344188469346 78.77908152935561,230.667929511721 76.74711713532452,230.78162850264926 74.19077483308502,226.65054297394818 74.02690673689358,223.08791879960336 75.40339874569327,220.6622829157277 74.81347359903157,218.9188474038092 70.94618652644567,214.29491384502035 66.55452154553495,212.36194106249604 63.76876390853431,207.62422040611273 59.63928788190242,207.70002440924873 58.88549463893287,207.24520015975577 56.39469957514666,202.69692723013577 56.198057859553955,198.2244048860448 54.29718794254586,192.99376002070494 39.51628565648571,181.96368202063604 39.09022860613186,181.09187503383146 39.87679546838626,179.42406469740672 38.17256726673804,180.75073261599755 32.732146469759755,175.06497980852146 23.12947602663189,166.99106219780515 19.0,161.72207354873535 19.294962573214434,161.03975303890184 24.243779081385583,158.8032493001665 34.96075257938355,155.77068047822104 32.01112684595864,143.94342691099155 31.322880841442384,138.52247724332847 30.8640501719201,108.99018820095807 31.486748937983066,107.24623163501383 31.224559983820654,89.16168028934044" stroke="yellow" stroke-linecap="round" stroke-linejoin="round" stroke-width="0.5"><title>2022-10-12 24.1km</title></polyline></svg>